<?xml version="1.0" encoding="UTF-8"?>
<!DOCTYPE svg PUBLIC "-//W3C//DTD SVG 1.1//EN" "http://www.w3.org/Graphics/SVG/1.1/DTD/svg11.dtd">
<svg version="1.2" width="140.01mm" height="100.01mm" viewBox="1000 999 14001 10001" preserveAspectRatio="xMidYMid" fill-rule="evenodd" stroke-width="28.222" stroke-linejoin="round" xmlns="http://www.w3.org/2000/svg" xmlns:ooo="http://xml.openoffice.org/svg/export" xmlns:xlink="http://www.w3.org/1999/xlink" xmlns:presentation="http://sun.com/xmlns/staroffice/presentation" xmlns:smil="http://www.w3.org/2001/SMIL20/" xmlns:anim="urn:oasis:names:tc:opendocument:xmlns:animation:1.0" xml:space="preserve">
 <defs class="ClipPathGroup">
  <clipPath id="presentation_clip_path" clipPathUnits="userSpaceOnUse">
   <rect x="1000" y="999" width="14001" height="10001"/>
  </clipPath>
  <clipPath id="presentation_clip_path_shrink" clipPathUnits="userSpaceOnUse">
   <rect x="1014" y="1009" width="13973" height="9981"/>
  </clipPath>
 </defs>
 <defs class="TextShapeIndex">
  <g ooo:slide="id1" ooo:id-list="id3 id4 id5 id6 id7 id8 id9 id10 id11 id12 id13 id14 id15 id16 id17 id18 id19 id20 id21 id22 id23 id24 id25 id26 id27 id28 id29 id30 id31 id32 id33 id34 id35 id36 id37 id38 id39 id40 id41 id42 id43 id44 id45 id46 id47 id48 id49 id50 id51 id52 id53 id54 id55 id56 id57 id58 id59 id60 id61 id62 id63 id64 id65 id66 id67"/>
 </defs>
 <defs class="EmbeddedBulletChars">
  <g id="bullet-char-template-57356" transform="scale(0.00048828125,-0.00048828125)">
   <path d="M 580,1141 L 1163,571 580,0 -4,571 580,1141 Z"/>
  </g>
  <g id="bullet-char-template-57354" transform="scale(0.00048828125,-0.00048828125)">
   <path d="M 8,1128 L 1137,1128 1137,0 8,0 8,1128 Z"/>
  </g>
  <g id="bullet-char-template-10146" transform="scale(0.00048828125,-0.00048828125)">
   <path d="M 174,0 L 602,739 174,1481 1456,739 174,0 Z M 1358,739 L 309,1346 659,739 1358,739 Z"/>
  </g>
  <g id="bullet-char-template-10132" transform="scale(0.00048828125,-0.00048828125)">
   <path d="M 2015,739 L 1276,0 717,0 1260,543 174,543 174,936 1260,936 717,1481 1274,1481 2015,739 Z"/>
  </g>
  <g id="bullet-char-template-10007" transform="scale(0.00048828125,-0.00048828125)">
   <path d="M 0,-2 C -7,14 -16,27 -25,37 L 356,567 C 262,823 215,952 215,954 215,979 228,992 255,992 264,992 276,990 289,987 310,991 331,999 354,1012 L 381,999 492,748 772,1049 836,1024 860,1049 C 881,1039 901,1025 922,1006 886,937 835,863 770,784 769,783 710,716 594,584 L 774,223 C 774,196 753,168 711,139 L 727,119 C 717,90 699,76 672,76 641,76 570,178 457,381 L 164,-76 C 142,-110 111,-127 72,-127 30,-127 9,-110 8,-76 1,-67 -2,-52 -2,-32 -2,-23 -1,-13 0,-2 Z"/>
  </g>
  <g id="bullet-char-template-10004" transform="scale(0.00048828125,-0.00048828125)">
   <path d="M 285,-33 C 182,-33 111,30 74,156 52,228 41,333 41,471 41,549 55,616 82,672 116,743 169,778 240,778 293,778 328,747 346,684 L 369,508 C 377,444 397,411 428,410 L 1163,1116 C 1174,1127 1196,1133 1229,1133 1271,1133 1292,1118 1292,1087 L 1292,965 C 1292,929 1282,901 1262,881 L 442,47 C 390,-6 338,-33 285,-33 Z"/>
  </g>
  <g id="bullet-char-template-9679" transform="scale(0.00048828125,-0.00048828125)">
   <path d="M 813,0 C 632,0 489,54 383,161 276,268 223,411 223,592 223,773 276,916 383,1023 489,1130 632,1184 813,1184 992,1184 1136,1130 1245,1023 1353,916 1407,772 1407,592 1407,412 1353,268 1245,161 1136,54 992,0 813,0 Z"/>
  </g>
  <g id="bullet-char-template-8226" transform="scale(0.00048828125,-0.00048828125)">
   <path d="M 346,457 C 273,457 209,483 155,535 101,586 74,649 74,723 74,796 101,859 155,911 209,963 273,989 346,989 419,989 480,963 531,910 582,859 608,796 608,723 608,648 583,586 532,535 482,483 420,457 346,457 Z"/>
  </g>
  <g id="bullet-char-template-8211" transform="scale(0.00048828125,-0.00048828125)">
   <path d="M -4,459 L 1135,459 1135,606 -4,606 -4,459 Z"/>
  </g>
  <g id="bullet-char-template-61548" transform="scale(0.00048828125,-0.00048828125)">
   <path d="M 173,740 C 173,903 231,1043 346,1159 462,1274 601,1332 765,1332 928,1332 1067,1274 1183,1159 1299,1043 1357,903 1357,740 1357,577 1299,437 1183,322 1067,206 928,148 765,148 601,148 462,206 346,322 231,437 173,577 173,740 Z"/>
  </g>
 </defs>
 <defs class="TextEmbeddedBitmaps"/>
 <g class="SlideGroup">
  <g>
   <g id="container-id1">
    <g id="id1" class="Slide" clip-path="url(#presentation_clip_path)">
     <g class="Page">
      <g class="com.sun.star.drawing.CustomShape">
       <g id="id3">
        <rect class="BoundingBox" stroke="none" fill="none" x="1000" y="999" width="14001" height="10001"/>
        <path fill="rgb(222,230,239)" stroke="none" d="M 8000,10999 L 1000,10999 1000,999 15000,999 15000,10999 8000,10999 Z"/>
       </g>
      </g>
      <g class="com.sun.star.drawing.CustomShape">
       <g id="id4">
        <rect class="BoundingBox" stroke="none" fill="none" x="3198" y="6527" width="1204" height="775"/>
        <path fill="rgb(255,222,89)" stroke="none" d="M 4400,6914 C 4400,6703 4332,6528 4250,6528 L 3350,6528 C 3268,6528 3199,6703 3199,6914 3199,7124 3268,7300 3350,7300 L 4250,7300 C 4332,7300 4400,7124 4400,6914 L 4400,6914 Z"/>
        <path fill="none" stroke="rgb(0,0,0)" d="M 4400,6914 C 4400,6703 4332,6528 4250,6528 L 3350,6528 C 3268,6528 3199,6703 3199,6914 3199,7124 3268,7300 3350,7300 L 4250,7300 C 4332,7300 4400,7124 4400,6914 Z"/>
        <path fill="rgb(255,235,155)" stroke="none" d="M 4400,6914 C 4400,6703 4332,6528 4250,6528 4168,6528 4100,6703 4100,6914 4100,7124 4168,7300 4250,7300 4332,7300 4400,7124 4400,6914 L 4400,6914 Z"/>
        <path fill="none" stroke="rgb(0,0,0)" d="M 4400,6914 C 4400,6703 4332,6528 4250,6528 4168,6528 4100,6703 4100,6914 4100,7124 4168,7300 4250,7300 4332,7300 4400,7124 4400,6914 Z"/>
       </g>
      </g>
      <g class="com.sun.star.drawing.CustomShape">
       <g id="id5">
        <rect class="BoundingBox" stroke="none" fill="none" x="4298" y="6298" width="1204" height="775"/>
        <path fill="rgb(255,222,89)" stroke="none" d="M 5500,6685 C 5500,6474 5432,6299 5350,6299 L 4450,6299 C 4368,6299 4299,6474 4299,6685 4299,6895 4368,7071 4450,7071 L 5350,7071 C 5432,7071 5500,6895 5500,6685 L 5500,6685 Z"/>
        <path fill="none" stroke="rgb(0,0,0)" d="M 5500,6685 C 5500,6474 5432,6299 5350,6299 L 4450,6299 C 4368,6299 4299,6474 4299,6685 4299,6895 4368,7071 4450,7071 L 5350,7071 C 5432,7071 5500,6895 5500,6685 Z"/>
        <path fill="rgb(255,235,155)" stroke="none" d="M 5500,6685 C 5500,6474 5432,6299 5350,6299 5268,6299 5200,6474 5200,6685 5200,6895 5268,7071 5350,7071 5432,7071 5500,6895 5500,6685 L 5500,6685 Z"/>
        <path fill="none" stroke="rgb(0,0,0)" d="M 5500,6685 C 5500,6474 5432,6299 5350,6299 5268,6299 5200,6474 5200,6685 5200,6895 5268,7071 5350,7071 5432,7071 5500,6895 5500,6685 Z"/>
       </g>
      </g>
      <g class="com.sun.star.drawing.CustomShape">
       <g id="id6">
        <rect class="BoundingBox" stroke="none" fill="none" x="5298" y="5898" width="1204" height="775"/>
        <path fill="rgb(255,222,89)" stroke="none" d="M 6500,6285 C 6500,6074 6432,5899 6350,5899 L 5450,5899 C 5368,5899 5299,6074 5299,6285 5299,6495 5368,6671 5450,6671 L 6350,6671 C 6432,6671 6500,6495 6500,6285 L 6500,6285 Z"/>
        <path fill="none" stroke="rgb(0,0,0)" d="M 6500,6285 C 6500,6074 6432,5899 6350,5899 L 5450,5899 C 5368,5899 5299,6074 5299,6285 5299,6495 5368,6671 5450,6671 L 6350,6671 C 6432,6671 6500,6495 6500,6285 Z"/>
        <path fill="rgb(255,235,155)" stroke="none" d="M 6500,6285 C 6500,6074 6432,5899 6350,5899 6268,5899 6200,6074 6200,6285 6200,6495 6268,6671 6350,6671 6432,6671 6500,6495 6500,6285 L 6500,6285 Z"/>
        <path fill="none" stroke="rgb(0,0,0)" d="M 6500,6285 C 6500,6074 6432,5899 6350,5899 6268,5899 6200,6074 6200,6285 6200,6495 6268,6671 6350,6671 6432,6671 6500,6495 6500,6285 Z"/>
       </g>
      </g>
      <g class="com.sun.star.drawing.CustomShape">
       <g id="id7">
        <rect class="BoundingBox" stroke="none" fill="none" x="5398" y="6427" width="1204" height="775"/>
        <path fill="rgb(255,222,89)" stroke="none" d="M 6600,6814 C 6600,6603 6532,6428 6450,6428 L 5550,6428 C 5468,6428 5399,6603 5399,6814 5399,7024 5468,7200 5550,7200 L 6450,7200 C 6532,7200 6600,7024 6600,6814 L 6600,6814 Z"/>
        <path fill="none" stroke="rgb(0,0,0)" d="M 6600,6814 C 6600,6603 6532,6428 6450,6428 L 5550,6428 C 5468,6428 5399,6603 5399,6814 5399,7024 5468,7200 5550,7200 L 6450,7200 C 6532,7200 6600,7024 6600,6814 Z"/>
        <path fill="rgb(255,235,155)" stroke="none" d="M 6600,6814 C 6600,6603 6532,6428 6450,6428 6368,6428 6300,6603 6300,6814 6300,7024 6368,7200 6450,7200 6532,7200 6600,7024 6600,6814 L 6600,6814 Z"/>
        <path fill="none" stroke="rgb(0,0,0)" d="M 6600,6814 C 6600,6603 6532,6428 6450,6428 6368,6428 6300,6603 6300,6814 6300,7024 6368,7200 6450,7200 6532,7200 6600,7024 6600,6814 Z"/>
       </g>
      </g>
      <g class="Group">
       <g class="com.sun.star.drawing.CustomShape">
        <g id="id8">
         <rect class="BoundingBox" stroke="none" fill="none" x="8830" y="6355" width="3101" height="1550"/>
         <path fill="rgb(241,13,12)" stroke="none" d="M 10380,7854 L 8880,7854 8880,6405 11880,6405 11880,7854 10380,7854 Z"/>
         <path fill="none" stroke="rgb(255,255,255)" stroke-width="100" stroke-linejoin="miter" d="M 10380,7854 L 8880,7854 8880,6405 11880,6405 11880,7854 10380,7854 Z"/>
        </g>
       </g>
       <g class="Group">
        <g class="com.sun.star.drawing.CustomShape">
         <g id="id9">
          <rect class="BoundingBox" stroke="none" fill="none" x="9530" y="6807" width="801" height="1101"/>
          <path fill="rgb(255,64,0)" stroke="none" d="M 9930,7857 L 9580,7857 9580,6857 10280,6857 10280,7857 9930,7857 Z"/>
          <path fill="none" stroke="rgb(255,255,255)" stroke-width="100" stroke-linejoin="miter" d="M 9930,7857 L 9580,7857 9580,6857 10280,6857 10280,7857 9930,7857 Z"/>
         </g>
        </g>
        <g class="com.sun.star.drawing.LineShape">
         <g id="id10">
          <rect class="BoundingBox" stroke="none" fill="none" x="9530" y="6807" width="801" height="1101"/>
          <path fill="none" stroke="rgb(255,255,255)" stroke-width="100" stroke-linejoin="round" d="M 9580,6857 L 10280,7857"/>
         </g>
        </g>
        <g class="com.sun.star.drawing.LineShape">
         <g id="id11">
          <rect class="BoundingBox" stroke="none" fill="none" x="9530" y="6807" width="801" height="1101"/>
          <path fill="none" stroke="rgb(255,255,255)" stroke-width="100" stroke-linejoin="round" d="M 10280,6857 L 9580,7857"/>
         </g>
        </g>
        <g class="com.sun.star.drawing.CustomShape">
         <g id="id12">
          <rect class="BoundingBox" stroke="none" fill="none" x="10330" y="6805" width="801" height="1101"/>
          <path fill="rgb(255,64,0)" stroke="none" d="M 10730,7855 L 10380,7855 10380,6855 11080,6855 11080,7855 10730,7855 Z"/>
          <path fill="none" stroke="rgb(255,255,255)" stroke-width="100" stroke-linejoin="miter" d="M 10730,7855 L 10380,7855 10380,6855 11080,6855 11080,7855 10730,7855 Z"/>
         </g>
        </g>
        <g class="com.sun.star.drawing.LineShape">
         <g id="id13">
          <rect class="BoundingBox" stroke="none" fill="none" x="10330" y="6805" width="801" height="1101"/>
          <path fill="none" stroke="rgb(255,255,255)" stroke-width="100" stroke-linejoin="round" d="M 10380,6855 L 11080,7855"/>
         </g>
        </g>
        <g class="com.sun.star.drawing.LineShape">
         <g id="id14">
          <rect class="BoundingBox" stroke="none" fill="none" x="10330" y="6805" width="801" height="1101"/>
          <path fill="none" stroke="rgb(255,255,255)" stroke-width="100" stroke-linejoin="round" d="M 11080,6855 L 10380,7855"/>
         </g>
        </g>
       </g>
       <g class="com.sun.star.drawing.PolyPolygonShape">
        <g id="id15">
         <rect class="BoundingBox" stroke="none" fill="none" x="8750" y="4550" width="3271" height="1907"/>
         <path fill="rgb(241,13,12)" stroke="none" d="M 8800,6406 L 11969,6406 11218,4824 10383,4600 9531,4812 8800,6406 Z"/>
         <path fill="none" stroke="rgb(101,9,83)" stroke-width="100" stroke-linejoin="bevel" d="M 8800,6406 L 11969,6406 11218,4824 10383,4600 9531,4812 8800,6406 Z"/>
        </g>
       </g>
       <g class="com.sun.star.drawing.PolyPolygonShape">
        <g id="id16">
         <rect class="BoundingBox" stroke="none" fill="none" x="8829" y="4654" width="3108" height="1803"/>
         <path fill="rgb(241,13,12)" stroke="none" d="M 8907,6406 L 11858,6406 11180,4906 10380,4706 9580,4906 8907,6406 Z"/>
         <path fill="none" stroke="rgb(255,255,255)" stroke-width="100" stroke-linejoin="miter" d="M 8907,6406 L 11858,6406 11180,4906 10380,4706 9580,4906 8907,6406 Z"/>
        </g>
       </g>
       <g class="com.sun.star.drawing.LineShape">
        <g id="id17">
         <rect class="BoundingBox" stroke="none" fill="none" x="9558" y="4906" width="101" height="1501"/>
         <path fill="none" stroke="rgb(255,255,255)" stroke-width="100" stroke-linejoin="miter" d="M 9608,4906 L 9608,6406"/>
        </g>
       </g>
       <g class="com.sun.star.drawing.LineShape">
        <g id="id18">
         <rect class="BoundingBox" stroke="none" fill="none" x="11066" y="4906" width="101" height="1501"/>
         <path fill="none" stroke="rgb(255,255,255)" stroke-width="100" stroke-linejoin="miter" d="M 11116,4906 L 11116,6406"/>
        </g>
       </g>
       <g class="com.sun.star.drawing.CustomShape">
        <g id="id19">
         <rect class="BoundingBox" stroke="none" fill="none" x="10091" y="5285" width="551" height="551"/>
         <path fill="rgb(0,0,0)" stroke="none" d="M 10366,5810 L 10116,5810 10116,5310 10616,5310 10616,5810 10366,5810 Z"/>
         <path fill="none" stroke="rgb(255,255,255)" stroke-width="50" stroke-linejoin="miter" d="M 10366,5810 L 10116,5810 10116,5310 10616,5310 10616,5810 10366,5810 Z"/>
        </g>
       </g>
       <g class="com.sun.star.drawing.CustomShape">
        <g id="id20">
         <rect class="BoundingBox" stroke="none" fill="none" x="9811" y="5333" width="330" height="264"/>
         <path fill="rgb(241,13,12)" stroke="none" d="M 9976,5571 L 9836,5571 9836,5358 10115,5358 10115,5571 9976,5571 Z"/>
         <path fill="none" stroke="rgb(255,255,255)" stroke-width="50" stroke-linejoin="miter" d="M 9976,5571 L 9836,5571 9836,5358 10115,5358 10115,5571 9976,5571 Z"/>
        </g>
       </g>
       <g class="com.sun.star.drawing.CustomShape">
        <g id="id21">
         <rect class="BoundingBox" stroke="none" fill="none" x="9811" y="5537" width="330" height="264"/>
         <path fill="rgb(241,13,12)" stroke="none" d="M 9976,5775 L 9836,5775 9836,5562 10115,5562 10115,5775 9976,5775 Z"/>
         <path fill="none" stroke="rgb(255,255,255)" stroke-width="50" stroke-linejoin="miter" d="M 9976,5775 L 9836,5775 9836,5562 10115,5562 10115,5775 9976,5775 Z"/>
        </g>
       </g>
       <g class="com.sun.star.drawing.CustomShape">
        <g id="id22">
         <rect class="BoundingBox" stroke="none" fill="none" x="10591" y="5335" width="330" height="264"/>
         <path fill="rgb(241,13,12)" stroke="none" d="M 10756,5573 L 10616,5573 10616,5360 10895,5360 10895,5573 10756,5573 Z"/>
         <path fill="none" stroke="rgb(255,255,255)" stroke-width="50" stroke-linejoin="miter" d="M 10756,5573 L 10616,5573 10616,5360 10895,5360 10895,5573 10756,5573 Z"/>
        </g>
       </g>
       <g class="com.sun.star.drawing.CustomShape">
        <g id="id23">
         <rect class="BoundingBox" stroke="none" fill="none" x="10591" y="5539" width="330" height="264"/>
         <path fill="rgb(241,13,12)" stroke="none" d="M 10756,5777 L 10616,5777 10616,5564 10895,5564 10895,5777 10756,5777 Z"/>
         <path fill="none" stroke="rgb(255,255,255)" stroke-width="50" stroke-linejoin="miter" d="M 10756,5777 L 10616,5777 10616,5564 10895,5564 10895,5777 10756,5777 Z"/>
        </g>
       </g>
      </g>
      <g class="Group">
       <g class="com.sun.star.drawing.CustomShape">
        <g id="id24">
         <rect class="BoundingBox" stroke="none" fill="none" x="999" y="7544" width="7803" height="121"/>
         <path fill="rgb(234,117,0)" stroke="none" d="M 4900,7663 L 1000,7663 1000,7545 8800,7545 8800,7663 4900,7663 Z"/>
         <path fill="none" stroke="rgb(0,0,0)" d="M 4900,7663 L 1000,7663 1000,7545 8800,7545 8800,7663 4900,7663 Z"/>
        </g>
       </g>
       <g class="com.sun.star.drawing.CustomShape">
        <g id="id25">
         <rect class="BoundingBox" stroke="none" fill="none" x="999" y="7071" width="7803" height="121"/>
         <path fill="rgb(234,117,0)" stroke="none" d="M 4900,7190 L 1000,7190 1000,7072 8800,7072 8800,7190 4900,7190 Z"/>
         <path fill="none" stroke="rgb(0,0,0)" d="M 4900,7190 L 1000,7190 1000,7072 8800,7072 8800,7190 4900,7190 Z"/>
        </g>
       </g>
       <g class="com.sun.star.drawing.PolyPolygonShape">
        <g id="id26">
         <rect class="BoundingBox" stroke="none" fill="none" x="999" y="6699" width="303" height="1203"/>
         <path fill="rgb(234,117,0)" stroke="none" d="M 1000,7900 L 1000,6953 1154,6700 1300,6953 1300,7900 1000,7900 Z"/>
         <path fill="none" stroke="rgb(0,0,0)" d="M 1000,7900 L 1000,6953 1154,6700 1300,6953 1300,7900 1000,7900 Z"/>
        </g>
       </g>
       <g class="com.sun.star.drawing.PolyPolygonShape">
        <g id="id27">
         <rect class="BoundingBox" stroke="none" fill="none" x="1324" y="6699" width="303" height="1203"/>
         <path fill="rgb(234,117,0)" stroke="none" d="M 1325,7900 L 1325,6953 1479,6700 1625,6953 1625,7900 1325,7900 Z"/>
         <path fill="none" stroke="rgb(0,0,0)" d="M 1325,7900 L 1325,6953 1479,6700 1625,6953 1625,7900 1325,7900 Z"/>
        </g>
       </g>
       <g class="com.sun.star.drawing.PolyPolygonShape">
        <g id="id28">
         <rect class="BoundingBox" stroke="none" fill="none" x="1649" y="6699" width="303" height="1203"/>
         <path fill="rgb(234,117,0)" stroke="none" d="M 1650,7900 L 1650,6953 1804,6700 1950,6953 1950,7900 1650,7900 Z"/>
         <path fill="none" stroke="rgb(0,0,0)" d="M 1650,7900 L 1650,6953 1804,6700 1950,6953 1950,7900 1650,7900 Z"/>
        </g>
       </g>
       <g class="com.sun.star.drawing.PolyPolygonShape">
        <g id="id29">
         <rect class="BoundingBox" stroke="none" fill="none" x="1974" y="6699" width="303" height="1203"/>
         <path fill="rgb(234,117,0)" stroke="none" d="M 1975,7900 L 1975,6953 2129,6700 2275,6953 2275,7900 1975,7900 Z"/>
         <path fill="none" stroke="rgb(0,0,0)" d="M 1975,7900 L 1975,6953 2129,6700 2275,6953 2275,7900 1975,7900 Z"/>
        </g>
       </g>
       <g class="com.sun.star.drawing.PolyPolygonShape">
        <g id="id30">
         <rect class="BoundingBox" stroke="none" fill="none" x="2299" y="6699" width="303" height="1203"/>
         <path fill="rgb(234,117,0)" stroke="none" d="M 2300,7900 L 2300,6953 2454,6700 2600,6953 2600,7900 2300,7900 Z"/>
         <path fill="none" stroke="rgb(0,0,0)" d="M 2300,7900 L 2300,6953 2454,6700 2600,6953 2600,7900 2300,7900 Z"/>
        </g>
       </g>
       <g class="com.sun.star.drawing.PolyPolygonShape">
        <g id="id31">
         <rect class="BoundingBox" stroke="none" fill="none" x="2624" y="6699" width="303" height="1203"/>
         <path fill="rgb(234,117,0)" stroke="none" d="M 2625,7900 L 2625,6953 2779,6700 2925,6953 2925,7900 2625,7900 Z"/>
         <path fill="none" stroke="rgb(0,0,0)" d="M 2625,7900 L 2625,6953 2779,6700 2925,6953 2925,7900 2625,7900 Z"/>
        </g>
       </g>
       <g class="com.sun.star.drawing.PolyPolygonShape">
        <g id="id32">
         <rect class="BoundingBox" stroke="none" fill="none" x="2949" y="6699" width="303" height="1203"/>
         <path fill="rgb(234,117,0)" stroke="none" d="M 2950,7900 L 2950,6953 3104,6700 3250,6953 3250,7900 2950,7900 Z"/>
         <path fill="none" stroke="rgb(0,0,0)" d="M 2950,7900 L 2950,6953 3104,6700 3250,6953 3250,7900 2950,7900 Z"/>
        </g>
       </g>
       <g class="com.sun.star.drawing.PolyPolygonShape">
        <g id="id33">
         <rect class="BoundingBox" stroke="none" fill="none" x="3274" y="6699" width="303" height="1203"/>
         <path fill="rgb(234,117,0)" stroke="none" d="M 3275,7900 L 3275,6953 3429,6700 3575,6953 3575,7900 3275,7900 Z"/>
         <path fill="none" stroke="rgb(0,0,0)" d="M 3275,7900 L 3275,6953 3429,6700 3575,6953 3575,7900 3275,7900 Z"/>
        </g>
       </g>
       <g class="com.sun.star.drawing.PolyPolygonShape">
        <g id="id34">
         <rect class="BoundingBox" stroke="none" fill="none" x="3599" y="6699" width="303" height="1203"/>
         <path fill="rgb(234,117,0)" stroke="none" d="M 3600,7900 L 3600,6953 3754,6700 3900,6953 3900,7900 3600,7900 Z"/>
         <path fill="none" stroke="rgb(0,0,0)" d="M 3600,7900 L 3600,6953 3754,6700 3900,6953 3900,7900 3600,7900 Z"/>
        </g>
       </g>
       <g class="com.sun.star.drawing.PolyPolygonShape">
        <g id="id35">
         <rect class="BoundingBox" stroke="none" fill="none" x="3924" y="6699" width="303" height="1203"/>
         <path fill="rgb(234,117,0)" stroke="none" d="M 3925,7900 L 3925,6953 4079,6700 4225,6953 4225,7900 3925,7900 Z"/>
         <path fill="none" stroke="rgb(0,0,0)" d="M 3925,7900 L 3925,6953 4079,6700 4225,6953 4225,7900 3925,7900 Z"/>
        </g>
       </g>
       <g class="com.sun.star.drawing.PolyPolygonShape">
        <g id="id36">
         <rect class="BoundingBox" stroke="none" fill="none" x="4249" y="6699" width="303" height="1203"/>
         <path fill="rgb(234,117,0)" stroke="none" d="M 4250,7900 L 4250,6953 4404,6700 4550,6953 4550,7900 4250,7900 Z"/>
         <path fill="none" stroke="rgb(0,0,0)" d="M 4250,7900 L 4250,6953 4404,6700 4550,6953 4550,7900 4250,7900 Z"/>
        </g>
       </g>
       <g class="com.sun.star.drawing.PolyPolygonShape">
        <g id="id37">
         <rect class="BoundingBox" stroke="none" fill="none" x="4574" y="6699" width="303" height="1203"/>
         <path fill="rgb(234,117,0)" stroke="none" d="M 4575,7900 L 4575,6953 4729,6700 4875,6953 4875,7900 4575,7900 Z"/>
         <path fill="none" stroke="rgb(0,0,0)" d="M 4575,7900 L 4575,6953 4729,6700 4875,6953 4875,7900 4575,7900 Z"/>
        </g>
       </g>
       <g class="com.sun.star.drawing.PolyPolygonShape">
        <g id="id38">
         <rect class="BoundingBox" stroke="none" fill="none" x="4899" y="6699" width="303" height="1203"/>
         <path fill="rgb(234,117,0)" stroke="none" d="M 4900,7900 L 4900,6953 5054,6700 5200,6953 5200,7900 4900,7900 Z"/>
         <path fill="none" stroke="rgb(0,0,0)" d="M 4900,7900 L 4900,6953 5054,6700 5200,6953 5200,7900 4900,7900 Z"/>
        </g>
       </g>
       <g class="com.sun.star.drawing.PolyPolygonShape">
        <g id="id39">
         <rect class="BoundingBox" stroke="none" fill="none" x="5224" y="6699" width="303" height="1203"/>
         <path fill="rgb(234,117,0)" stroke="none" d="M 5225,7900 L 5225,6953 5379,6700 5525,6953 5525,7900 5225,7900 Z"/>
         <path fill="none" stroke="rgb(0,0,0)" d="M 5225,7900 L 5225,6953 5379,6700 5525,6953 5525,7900 5225,7900 Z"/>
        </g>
       </g>
       <g class="com.sun.star.drawing.PolyPolygonShape">
        <g id="id40">
         <rect class="BoundingBox" stroke="none" fill="none" x="5549" y="6699" width="303" height="1203"/>
         <path fill="rgb(234,117,0)" stroke="none" d="M 5550,7900 L 5550,6953 5704,6700 5850,6953 5850,7900 5550,7900 Z"/>
         <path fill="none" stroke="rgb(0,0,0)" d="M 5550,7900 L 5550,6953 5704,6700 5850,6953 5850,7900 5550,7900 Z"/>
        </g>
       </g>
       <g class="com.sun.star.drawing.PolyPolygonShape">
        <g id="id41">
         <rect class="BoundingBox" stroke="none" fill="none" x="5874" y="6699" width="303" height="1203"/>
         <path fill="rgb(234,117,0)" stroke="none" d="M 5875,7900 L 5875,6953 6029,6700 6175,6953 6175,7900 5875,7900 Z"/>
         <path fill="none" stroke="rgb(0,0,0)" d="M 5875,7900 L 5875,6953 6029,6700 6175,6953 6175,7900 5875,7900 Z"/>
        </g>
       </g>
       <g class="com.sun.star.drawing.PolyPolygonShape">
        <g id="id42">
         <rect class="BoundingBox" stroke="none" fill="none" x="6199" y="6699" width="303" height="1203"/>
         <path fill="rgb(234,117,0)" stroke="none" d="M 6200,7900 L 6200,6953 6354,6700 6500,6953 6500,7900 6200,7900 Z"/>
         <path fill="none" stroke="rgb(0,0,0)" d="M 6200,7900 L 6200,6953 6354,6700 6500,6953 6500,7900 6200,7900 Z"/>
        </g>
       </g>
       <g class="com.sun.star.drawing.PolyPolygonShape">
        <g id="id43">
         <rect class="BoundingBox" stroke="none" fill="none" x="6524" y="6699" width="303" height="1203"/>
         <path fill="rgb(234,117,0)" stroke="none" d="M 6525,7900 L 6525,6953 6679,6700 6825,6953 6825,7900 6525,7900 Z"/>
         <path fill="none" stroke="rgb(0,0,0)" d="M 6525,7900 L 6525,6953 6679,6700 6825,6953 6825,7900 6525,7900 Z"/>
        </g>
       </g>
       <g class="com.sun.star.drawing.PolyPolygonShape">
        <g id="id44">
         <rect class="BoundingBox" stroke="none" fill="none" x="6857" y="6699" width="303" height="1203"/>
         <path fill="rgb(234,117,0)" stroke="none" d="M 6858,7900 L 6858,6953 7012,6700 7158,6953 7158,7900 6858,7900 Z"/>
         <path fill="none" stroke="rgb(0,0,0)" d="M 6858,7900 L 6858,6953 7012,6700 7158,6953 7158,7900 6858,7900 Z"/>
        </g>
       </g>
       <g class="com.sun.star.drawing.PolyPolygonShape">
        <g id="id45">
         <rect class="BoundingBox" stroke="none" fill="none" x="7182" y="6699" width="303" height="1203"/>
         <path fill="rgb(234,117,0)" stroke="none" d="M 7183,7900 L 7183,6953 7337,6700 7483,6953 7483,7900 7183,7900 Z"/>
         <path fill="none" stroke="rgb(0,0,0)" d="M 7183,7900 L 7183,6953 7337,6700 7483,6953 7483,7900 7183,7900 Z"/>
        </g>
       </g>
       <g class="com.sun.star.drawing.PolyPolygonShape">
        <g id="id46">
         <rect class="BoundingBox" stroke="none" fill="none" x="7507" y="6699" width="303" height="1203"/>
         <path fill="rgb(234,117,0)" stroke="none" d="M 7508,7900 L 7508,6953 7662,6700 7808,6953 7808,7900 7508,7900 Z"/>
         <path fill="none" stroke="rgb(0,0,0)" d="M 7508,7900 L 7508,6953 7662,6700 7808,6953 7808,7900 7508,7900 Z"/>
        </g>
       </g>
       <g class="com.sun.star.drawing.PolyPolygonShape">
        <g id="id47">
         <rect class="BoundingBox" stroke="none" fill="none" x="7832" y="6699" width="303" height="1203"/>
         <path fill="rgb(234,117,0)" stroke="none" d="M 7833,7900 L 7833,6953 7987,6700 8133,6953 8133,7900 7833,7900 Z"/>
         <path fill="none" stroke="rgb(0,0,0)" d="M 7833,7900 L 7833,6953 7987,6700 8133,6953 8133,7900 7833,7900 Z"/>
        </g>
       </g>
       <g class="com.sun.star.drawing.PolyPolygonShape">
        <g id="id48">
         <rect class="BoundingBox" stroke="none" fill="none" x="8157" y="6699" width="303" height="1203"/>
         <path fill="rgb(234,117,0)" stroke="none" d="M 8158,7900 L 8158,6953 8312,6700 8458,6953 8458,7900 8158,7900 Z"/>
         <path fill="none" stroke="rgb(0,0,0)" d="M 8158,7900 L 8158,6953 8312,6700 8458,6953 8458,7900 8158,7900 Z"/>
        </g>
       </g>
       <g class="com.sun.star.drawing.PolyPolygonShape">
        <g id="id49">
         <rect class="BoundingBox" stroke="none" fill="none" x="8482" y="6699" width="303" height="1203"/>
         <path fill="rgb(234,117,0)" stroke="none" d="M 8483,7900 L 8483,6953 8637,6700 8783,6953 8783,7900 8483,7900 Z"/>
         <path fill="none" stroke="rgb(0,0,0)" d="M 8483,7900 L 8483,6953 8637,6700 8783,6953 8783,7900 8483,7900 Z"/>
        </g>
       </g>
      </g>
      <g class="com.sun.star.drawing.CustomShape">
       <g id="id50">
        <rect class="BoundingBox" stroke="none" fill="none" x="11953" y="7544" width="2948" height="121"/>
        <path fill="rgb(234,117,0)" stroke="none" d="M 13427,7663 L 11954,7663 11954,7545 14899,7545 14899,7663 13427,7663 Z"/>
        <path fill="none" stroke="rgb(0,0,0)" d="M 13427,7663 L 11954,7663 11954,7545 14899,7545 14899,7663 13427,7663 Z"/>
       </g>
      </g>
      <g class="com.sun.star.drawing.CustomShape">
       <g id="id51">
        <rect class="BoundingBox" stroke="none" fill="none" x="11953" y="7071" width="2948" height="121"/>
        <path fill="rgb(234,117,0)" stroke="none" d="M 13427,7190 L 11954,7190 11954,7072 14899,7072 14899,7190 13427,7190 Z"/>
        <path fill="none" stroke="rgb(0,0,0)" d="M 13427,7190 L 11954,7190 11954,7072 14899,7072 14899,7190 13427,7190 Z"/>
       </g>
      </g>
      <g class="com.sun.star.drawing.PolyPolygonShape">
       <g id="id52">
        <rect class="BoundingBox" stroke="none" fill="none" x="11954" y="6699" width="303" height="1203"/>
        <path fill="rgb(234,117,0)" stroke="none" d="M 11955,7900 L 11955,6953 12109,6700 12255,6953 12255,7900 11955,7900 Z"/>
        <path fill="none" stroke="rgb(0,0,0)" d="M 11955,7900 L 11955,6953 12109,6700 12255,6953 12255,7900 11955,7900 Z"/>
       </g>
      </g>
      <g class="com.sun.star.drawing.PolyPolygonShape">
       <g id="id53">
        <rect class="BoundingBox" stroke="none" fill="none" x="12279" y="6699" width="303" height="1203"/>
        <path fill="rgb(234,117,0)" stroke="none" d="M 12280,7900 L 12280,6953 12434,6700 12580,6953 12580,7900 12280,7900 Z"/>
        <path fill="none" stroke="rgb(0,0,0)" d="M 12280,7900 L 12280,6953 12434,6700 12580,6953 12580,7900 12280,7900 Z"/>
       </g>
      </g>
      <g class="com.sun.star.drawing.PolyPolygonShape">
       <g id="id54">
        <rect class="BoundingBox" stroke="none" fill="none" x="12604" y="6699" width="303" height="1203"/>
        <path fill="rgb(234,117,0)" stroke="none" d="M 12605,7900 L 12605,6953 12759,6700 12905,6953 12905,7900 12605,7900 Z"/>
        <path fill="none" stroke="rgb(0,0,0)" d="M 12605,7900 L 12605,6953 12759,6700 12905,6953 12905,7900 12605,7900 Z"/>
       </g>
      </g>
      <g class="com.sun.star.drawing.PolyPolygonShape">
       <g id="id55">
        <rect class="BoundingBox" stroke="none" fill="none" x="12929" y="6699" width="303" height="1203"/>
        <path fill="rgb(234,117,0)" stroke="none" d="M 12930,7900 L 12930,6953 13084,6700 13230,6953 13230,7900 12930,7900 Z"/>
        <path fill="none" stroke="rgb(0,0,0)" d="M 12930,7900 L 12930,6953 13084,6700 13230,6953 13230,7900 12930,7900 Z"/>
       </g>
      </g>
      <g class="com.sun.star.drawing.PolyPolygonShape">
       <g id="id56">
        <rect class="BoundingBox" stroke="none" fill="none" x="13254" y="6699" width="303" height="1203"/>
        <path fill="rgb(234,117,0)" stroke="none" d="M 13255,7900 L 13255,6953 13409,6700 13555,6953 13555,7900 13255,7900 Z"/>
        <path fill="none" stroke="rgb(0,0,0)" d="M 13255,7900 L 13255,6953 13409,6700 13555,6953 13555,7900 13255,7900 Z"/>
       </g>
      </g>
      <g class="com.sun.star.drawing.PolyPolygonShape">
       <g id="id57">
        <rect class="BoundingBox" stroke="none" fill="none" x="13579" y="6699" width="303" height="1203"/>
        <path fill="rgb(234,117,0)" stroke="none" d="M 13580,7900 L 13580,6953 13734,6700 13880,6953 13880,7900 13580,7900 Z"/>
        <path fill="none" stroke="rgb(0,0,0)" d="M 13580,7900 L 13580,6953 13734,6700 13880,6953 13880,7900 13580,7900 Z"/>
       </g>
      </g>
      <g class="com.sun.star.drawing.PolyPolygonShape">
       <g id="id58">
        <rect class="BoundingBox" stroke="none" fill="none" x="13904" y="6699" width="303" height="1203"/>
        <path fill="rgb(234,117,0)" stroke="none" d="M 13905,7900 L 13905,6953 14059,6700 14205,6953 14205,7900 13905,7900 Z"/>
        <path fill="none" stroke="rgb(0,0,0)" d="M 13905,7900 L 13905,6953 14059,6700 14205,6953 14205,7900 13905,7900 Z"/>
       </g>
      </g>
      <g class="com.sun.star.drawing.PolyPolygonShape">
       <g id="id59">
        <rect class="BoundingBox" stroke="none" fill="none" x="14229" y="6699" width="303" height="1203"/>
        <path fill="rgb(234,117,0)" stroke="none" d="M 14230,7900 L 14230,6953 14384,6700 14530,6953 14530,7900 14230,7900 Z"/>
        <path fill="none" stroke="rgb(0,0,0)" d="M 14230,7900 L 14230,6953 14384,6700 14530,6953 14530,7900 14230,7900 Z"/>
       </g>
      </g>
      <g class="com.sun.star.drawing.PolyPolygonShape">
       <g id="id60">
        <rect class="BoundingBox" stroke="none" fill="none" x="14554" y="6699" width="303" height="1203"/>
        <path fill="rgb(234,117,0)" stroke="none" d="M 14555,7900 L 14555,6953 14709,6700 14855,6953 14855,7900 14555,7900 Z"/>
        <path fill="none" stroke="rgb(0,0,0)" d="M 14555,7900 L 14555,6953 14709,6700 14855,6953 14855,7900 14555,7900 Z"/>
       </g>
      </g>
      <g class="com.sun.star.drawing.CustomShape">
       <g id="id61">
        <rect class="BoundingBox" stroke="none" fill="none" x="1000" y="7900" width="14001" height="3101"/>
        <path fill="rgb(255,233,148)" stroke="none" d="M 8000,11000 L 1000,11000 1000,7900 15000,7900 15000,11000 8000,11000 Z"/>
       </g>
      </g>
      <g class="com.sun.star.drawing.PolyPolygonShape">
       <g id="id62">
        <rect class="BoundingBox" stroke="none" fill="none" x="999" y="7899" width="7803" height="703"/>
        <path fill="rgb(119,188,101)" stroke="none" d="M 1000,8300 L 1000,7900 8800,7900 8600,8000 8100,8100 7000,8200 6000,8500 5000,8400 4100,8500 3400,8400 2500,8600 2400,8300 1600,8500 1000,8300 Z"/>
        <path fill="none" stroke="rgb(0,0,0)" d="M 1000,8300 L 1000,7900 8800,7900 8600,8000 8100,8100 7000,8200 6000,8500 5000,8400 4100,8500 3400,8400 2500,8600 2400,8300 1600,8500 1000,8300 Z"/>
       </g>
      </g>
      <g class="com.sun.star.drawing.PolyPolygonShape">
       <g id="id63">
        <rect class="BoundingBox" stroke="none" fill="none" x="11899" y="7899" width="3103" height="503"/>
        <path fill="rgb(119,188,101)" stroke="none" d="M 12200,8100 L 11900,7900 15000,7900 15000,8300 14700,8200 13200,8400 12200,8100 Z"/>
        <path fill="none" stroke="rgb(0,0,0)" d="M 12200,8100 L 11900,7900 15000,7900 15000,8300 14700,8200 13200,8400 12200,8100 Z"/>
       </g>
      </g>
      <g class="com.sun.star.drawing.PolyPolygonShape">
       <g id="id64">
        <rect class="BoundingBox" stroke="none" fill="none" x="1999" y="9199" width="1135" height="474"/>
        <path fill="rgb(119,188,101)" stroke="none" d="M 2570,9376 L 2474,9277 2409,9459 2185,9347 2233,9517 2000,9536 2153,9671 2948,9659 2972,9599 3132,9470 2843,9465 2933,9328 2740,9435 2755,9200 2570,9376 Z"/>
        <path fill="none" stroke="rgb(0,0,0)" d="M 2570,9376 L 2474,9277 2409,9459 2185,9347 2233,9517 2000,9536 2153,9671 2948,9659 2972,9599 3132,9470 2843,9465 2933,9328 2740,9435 2755,9200 2570,9376 Z"/>
       </g>
      </g>
      <g class="com.sun.star.drawing.PolyPolygonShape">
       <g id="id65">
        <rect class="BoundingBox" stroke="none" fill="none" x="12367" y="8799" width="1135" height="474"/>
        <path fill="rgb(119,188,101)" stroke="none" d="M 12938,8976 L 12842,8877 12777,9059 12553,8947 12601,9117 12368,9136 12521,9271 13316,9259 13340,9199 13500,9070 13211,9065 13301,8928 13108,9035 13123,8800 12938,8976 Z"/>
        <path fill="none" stroke="rgb(0,0,0)" d="M 12938,8976 L 12842,8877 12777,9059 12553,8947 12601,9117 12368,9136 12521,9271 13316,9259 13340,9199 13500,9070 13211,9065 13301,8928 13108,9035 13123,8800 12938,8976 Z"/>
       </g>
      </g>
      <g class="com.sun.star.drawing.PolyPolygonShape">
       <g id="id66">
        <rect class="BoundingBox" stroke="none" fill="none" x="11899" y="9828" width="1135" height="474"/>
        <path fill="rgb(119,188,101)" stroke="none" d="M 12470,10005 L 12374,9906 12309,10088 12085,9976 12133,10146 11900,10165 12053,10300 12848,10288 12872,10228 13032,10099 12743,10094 12833,9957 12640,10064 12655,9829 12470,10005 Z"/>
        <path fill="none" stroke="rgb(0,0,0)" d="M 12470,10005 L 12374,9906 12309,10088 12085,9976 12133,10146 11900,10165 12053,10300 12848,10288 12872,10228 13032,10099 12743,10094 12833,9957 12640,10064 12655,9829 12470,10005 Z"/>
       </g>
      </g>
      <g class="com.sun.star.drawing.PolyPolygonShape">
       <g id="id67">
        <rect class="BoundingBox" stroke="none" fill="none" x="14889" y="6771" width="113" height="1131"/>
        <path fill="rgb(234,117,0)" stroke="none" d="M 15000,7900 L 14890,7900 14890,6953 15000,6772 15000,7900 Z"/>
        <path fill="none" stroke="rgb(0,0,0)" d="M 15000,7900 L 14890,7900 14890,6953 15000,6772 15000,7900 Z"/>
       </g>
      </g>
     </g>
    </g>
   </g>
  </g>
 </g>
</svg>