<?xml version="1.0" encoding="UTF-8"?>
<!DOCTYPE svg PUBLIC "-//W3C//DTD SVG 1.1//EN" "http://www.w3.org/Graphics/SVG/1.1/DTD/svg11.dtd">
<svg version="1.2" width="162.02mm" height="100.02mm" viewBox="2100 18100 16202 10002" preserveAspectRatio="xMidYMid" fill-rule="evenodd" stroke-width="28.222" stroke-linejoin="round" xmlns="http://www.w3.org/2000/svg" xmlns:ooo="http://xml.openoffice.org/svg/export" xmlns:xlink="http://www.w3.org/1999/xlink" xmlns:presentation="http://sun.com/xmlns/staroffice/presentation" xmlns:smil="http://www.w3.org/2001/SMIL20/" xmlns:anim="urn:oasis:names:tc:opendocument:xmlns:animation:1.0" xml:space="preserve">
 <defs class="ClipPathGroup">
  <clipPath id="presentation_clip_path" clipPathUnits="userSpaceOnUse">
   <rect x="2100" y="18100" width="16202" height="10002"/>
  </clipPath>
  <clipPath id="presentation_clip_path_shrink" clipPathUnits="userSpaceOnUse">
   <rect x="2116" y="18110" width="16170" height="9982"/>
  </clipPath>
 </defs>
 <defs class="TextShapeIndex">
  <g ooo:slide="id1" ooo:id-list="id3"/>
 </defs>
 <defs class="EmbeddedBulletChars">
  <g id="bullet-char-template-57356" transform="scale(0.00048828125,-0.00048828125)">
   <path d="M 580,1141 L 1163,571 580,0 -4,571 580,1141 Z"/>
  </g>
  <g id="bullet-char-template-57354" transform="scale(0.00048828125,-0.00048828125)">
   <path d="M 8,1128 L 1137,1128 1137,0 8,0 8,1128 Z"/>
  </g>
  <g id="bullet-char-template-10146" transform="scale(0.00048828125,-0.00048828125)">
   <path d="M 174,0 L 602,739 174,1481 1456,739 174,0 Z M 1358,739 L 309,1346 659,739 1358,739 Z"/>
  </g>
  <g id="bullet-char-template-10132" transform="scale(0.00048828125,-0.00048828125)">
   <path d="M 2015,739 L 1276,0 717,0 1260,543 174,543 174,936 1260,936 717,1481 1274,1481 2015,739 Z"/>
  </g>
  <g id="bullet-char-template-10007" transform="scale(0.00048828125,-0.00048828125)">
   <path d="M 0,-2 C -7,14 -16,27 -25,37 L 356,567 C 262,823 215,952 215,954 215,979 228,992 255,992 264,992 276,990 289,987 310,991 331,999 354,1012 L 381,999 492,748 772,1049 836,1024 860,1049 C 881,1039 901,1025 922,1006 886,937 835,863 770,784 769,783 710,716 594,584 L 774,223 C 774,196 753,168 711,139 L 727,119 C 717,90 699,76 672,76 641,76 570,178 457,381 L 164,-76 C 142,-110 111,-127 72,-127 30,-127 9,-110 8,-76 1,-67 -2,-52 -2,-32 -2,-23 -1,-13 0,-2 Z"/>
  </g>
  <g id="bullet-char-template-10004" transform="scale(0.00048828125,-0.00048828125)">
   <path d="M 285,-33 C 182,-33 111,30 74,156 52,228 41,333 41,471 41,549 55,616 82,672 116,743 169,778 240,778 293,778 328,747 346,684 L 369,508 C 377,444 397,411 428,410 L 1163,1116 C 1174,1127 1196,1133 1229,1133 1271,1133 1292,1118 1292,1087 L 1292,965 C 1292,929 1282,901 1262,881 L 442,47 C 390,-6 338,-33 285,-33 Z"/>
  </g>
  <g id="bullet-char-template-9679" transform="scale(0.00048828125,-0.00048828125)">
   <path d="M 813,0 C 632,0 489,54 383,161 276,268 223,411 223,592 223,773 276,916 383,1023 489,1130 632,1184 813,1184 992,1184 1136,1130 1245,1023 1353,916 1407,772 1407,592 1407,412 1353,268 1245,161 1136,54 992,0 813,0 Z"/>
  </g>
  <g id="bullet-char-template-8226" transform="scale(0.00048828125,-0.00048828125)">
   <path d="M 346,457 C 273,457 209,483 155,535 101,586 74,649 74,723 74,796 101,859 155,911 209,963 273,989 346,989 419,989 480,963 531,910 582,859 608,796 608,723 608,648 583,586 532,535 482,483 420,457 346,457 Z"/>
  </g>
  <g id="bullet-char-template-8211" transform="scale(0.00048828125,-0.00048828125)">
   <path d="M -4,459 L 1135,459 1135,606 -4,606 -4,459 Z"/>
  </g>
  <g id="bullet-char-template-61548" transform="scale(0.00048828125,-0.00048828125)">
   <path d="M 173,740 C 173,903 231,1043 346,1159 462,1274 601,1332 765,1332 928,1332 1067,1274 1183,1159 1299,1043 1357,903 1357,740 1357,577 1299,437 1183,322 1067,206 928,148 765,148 601,148 462,206 346,322 231,437 173,577 173,740 Z"/>
  </g>
 </defs>
 <defs class="TextEmbeddedBitmaps"/>
 <g class="SlideGroup">
  <g>
   <g id="container-id1">
    <g id="id1" class="Slide" clip-path="url(#presentation_clip_path)">
     <g class="Page">
      <g class="com.sun.star.drawing.CustomShape">
       <g id="id3">
        <rect class="BoundingBox" stroke="none" fill="none" x="2099" y="18099" width="16204" height="10004"/>
        <path fill="rgb(255,255,255)" stroke="none" d="M 3547,21415 C 3247,20178 4650,19012 6052,19012 6495,19002 6952,19123 7327,19303 7687,18743 8355,18400 9105,18400 9603,18419 10132,18586 10508,18887 10778,18391 11348,18100 11963,18100 12480,18100 12953,18312 13253,18637 13598,18303 14115,18100 14655,18100 15533,18100 16275,18623 16433,19354 17280,19558 17895,20220 17895,20979 17895,21211 17850,21433 17723,21646 18083,22017 18301,22475 18301,22943 18301,24003 17333,24896 16088,25049 16088,26063 15128,26860 13928,26860 13515,26860 13125,26762 12780,26577 12465,27471 11468,28101 10350,28101 9517,28101 8730,27725 8257,27133 7815,27360 8047,27494 6780,27494 5737,27494 4777,27026 4275,26267 3075,26248 2460,25647 2460,24887 2460,24535 2617,24216 2902,23952 2385,23730 2100,23290 2100,22785 2100,22077 2730,21493 3547,21415 L 3547,21415 Z"/>
        <path fill="none" stroke="rgb(0,0,0)" d="M 3547,21415 C 3247,20178 4650,19012 6052,19012 6495,19002 6952,19123 7327,19303 7687,18743 8355,18400 9105,18400 9603,18419 10132,18586 10508,18887 10778,18391 11348,18100 11963,18100 12480,18100 12953,18312 13253,18637 13598,18303 14115,18100 14655,18100 15533,18100 16275,18623 16433,19354 17280,19558 17895,20220 17895,20979 17895,21211 17850,21433 17723,21646 18083,22017 18301,22475 18301,22943 18301,24003 17333,24896 16088,25049 16088,26063 15128,26860 13928,26860 13515,26860 13125,26762 12780,26577 12465,27471 11468,28101 10350,28101 9517,28101 8730,27725 8257,27133 7815,27360 8047,27494 6780,27494 5737,27494 4777,27026 4275,26267 3075,26248 2460,25647 2460,24887 2460,24535 2617,24216 2902,23952 2385,23730 2100,23290 2100,22785 2100,22077 2730,21493 3547,21415 Z"/>
        <path fill="none" stroke="rgb(0,0,0)" d="M 3547,21415 C 3562,21530 3630,21660 3667,21767"/>
        <path fill="none" stroke="rgb(0,0,0)" d="M 7327,19303 C 7500,19391 7710,19512 7852,19632"/>
        <path fill="none" stroke="rgb(0,0,0)" d="M 10508,18887 C 10448,18984 10410,19100 10373,19211"/>
        <path fill="none" stroke="rgb(0,0,0)" d="M 13253,18637 C 13140,18748 13080,18896 13005,19030"/>
        <path fill="none" stroke="rgb(0,0,0)" d="M 16433,19354 C 16448,19438 16523,19623 16493,19664"/>
        <path fill="none" stroke="rgb(0,0,0)" d="M 17723,21646 C 17595,21882 17423,22091 17183,22262"/>
        <path fill="none" stroke="rgb(0,0,0)" d="M 16095,25049 C 16155,24674 15810,23748 14850,23401"/>
        <path fill="none" stroke="rgb(0,0,0)" d="M 12780,26577 C 12840,26424 12863,26286 12878,26137"/>
        <path fill="none" stroke="rgb(0,0,0)" d="M 8265,27133 C 8145,27012 8070,26874 7995,26730"/>
        <path fill="none" stroke="rgb(0,0,0)" d="M 4275,26267 C 4417,26248 4560,26221 4695,26179"/>
        <path fill="none" stroke="rgb(0,0,0)" d="M 2902,23952 C 3150,24072 3435,24179 3847,24137"/>
       </g>
      </g>
     </g>
    </g>
   </g>
  </g>
 </g>
</svg>