<?xml version="1.0" encoding="UTF-8"?>
<!DOCTYPE svg PUBLIC "-//W3C//DTD SVG 1.1//EN" "http://www.w3.org/Graphics/SVG/1.1/DTD/svg11.dtd">
<svg version="1.2" width="65.28mm" height="59.9mm" viewBox="1777 6000 6528 5990" preserveAspectRatio="xMidYMid" fill-rule="evenodd" stroke-width="28.222" stroke-linejoin="round" xmlns="http://www.w3.org/2000/svg" xmlns:ooo="http://xml.openoffice.org/svg/export" xmlns:xlink="http://www.w3.org/1999/xlink" xmlns:presentation="http://sun.com/xmlns/staroffice/presentation" xmlns:smil="http://www.w3.org/2001/SMIL20/" xmlns:anim="urn:oasis:names:tc:opendocument:xmlns:animation:1.0" xml:space="preserve">
 <defs class="ClipPathGroup">
  <clipPath id="presentation_clip_path" clipPathUnits="userSpaceOnUse">
   <rect x="1777" y="6000" width="6528" height="5990"/>
  </clipPath>
  <clipPath id="presentation_clip_path_shrink" clipPathUnits="userSpaceOnUse">
   <rect x="1783" y="6005" width="6515" height="5979"/>
  </clipPath>
 </defs>
 <defs class="EmbeddedBulletChars">
  <g id="bullet-char-template-57356" transform="scale(0.00048828125,-0.00048828125)">
   <path d="M 580,1141 L 1163,571 580,0 -4,571 580,1141 Z"/>
  </g>
  <g id="bullet-char-template-57354" transform="scale(0.00048828125,-0.00048828125)">
   <path d="M 8,1128 L 1137,1128 1137,0 8,0 8,1128 Z"/>
  </g>
  <g id="bullet-char-template-10146" transform="scale(0.00048828125,-0.00048828125)">
   <path d="M 174,0 L 602,739 174,1481 1456,739 174,0 Z M 1358,739 L 309,1346 659,739 1358,739 Z"/>
  </g>
  <g id="bullet-char-template-10132" transform="scale(0.00048828125,-0.00048828125)">
   <path d="M 2015,739 L 1276,0 717,0 1260,543 174,543 174,936 1260,936 717,1481 1274,1481 2015,739 Z"/>
  </g>
  <g id="bullet-char-template-10007" transform="scale(0.00048828125,-0.00048828125)">
   <path d="M 0,-2 C -7,14 -16,27 -25,37 L 356,567 C 262,823 215,952 215,954 215,979 228,992 255,992 264,992 276,990 289,987 310,991 331,999 354,1012 L 381,999 492,748 772,1049 836,1024 860,1049 C 881,1039 901,1025 922,1006 886,937 835,863 770,784 769,783 710,716 594,584 L 774,223 C 774,196 753,168 711,139 L 727,119 C 717,90 699,76 672,76 641,76 570,178 457,381 L 164,-76 C 142,-110 111,-127 72,-127 30,-127 9,-110 8,-76 1,-67 -2,-52 -2,-32 -2,-23 -1,-13 0,-2 Z"/>
  </g>
  <g id="bullet-char-template-10004" transform="scale(0.00048828125,-0.00048828125)">
   <path d="M 285,-33 C 182,-33 111,30 74,156 52,228 41,333 41,471 41,549 55,616 82,672 116,743 169,778 240,778 293,778 328,747 346,684 L 369,508 C 377,444 397,411 428,410 L 1163,1116 C 1174,1127 1196,1133 1229,1133 1271,1133 1292,1118 1292,1087 L 1292,965 C 1292,929 1282,901 1262,881 L 442,47 C 390,-6 338,-33 285,-33 Z"/>
  </g>
  <g id="bullet-char-template-9679" transform="scale(0.00048828125,-0.00048828125)">
   <path d="M 813,0 C 632,0 489,54 383,161 276,268 223,411 223,592 223,773 276,916 383,1023 489,1130 632,1184 813,1184 992,1184 1136,1130 1245,1023 1353,916 1407,772 1407,592 1407,412 1353,268 1245,161 1136,54 992,0 813,0 Z"/>
  </g>
  <g id="bullet-char-template-8226" transform="scale(0.00048828125,-0.00048828125)">
   <path d="M 346,457 C 273,457 209,483 155,535 101,586 74,649 74,723 74,796 101,859 155,911 209,963 273,989 346,989 419,989 480,963 531,910 582,859 608,796 608,723 608,648 583,586 532,535 482,483 420,457 346,457 Z"/>
  </g>
  <g id="bullet-char-template-8211" transform="scale(0.00048828125,-0.00048828125)">
   <path d="M -4,459 L 1135,459 1135,606 -4,606 -4,459 Z"/>
  </g>
  <g id="bullet-char-template-61548" transform="scale(0.00048828125,-0.00048828125)">
   <path d="M 173,740 C 173,903 231,1043 346,1159 462,1274 601,1332 765,1332 928,1332 1067,1274 1183,1159 1299,1043 1357,903 1357,740 1357,577 1299,437 1183,322 1067,206 928,148 765,148 601,148 462,206 346,322 231,437 173,577 173,740 Z"/>
  </g>
 </defs>
 <defs class="TextEmbeddedBitmaps"/>
 <g class="SlideGroup">
  <g>
   <g id="container-id1">
    <g id="id1" class="Slide" clip-path="url(#presentation_clip_path)">
     <g class="Page">
      <g class="Group">
       <g class="Group">
        <g class="com.sun.star.drawing.CustomShape">
         <g id="id3">
          <rect class="BoundingBox" stroke="none" fill="none" x="6837" y="6973" width="1469" height="1103"/>
          <path fill="rgb(255,255,255)" stroke="none" d="M 7785,7153 C 7914,7227 8015,7306 8107,7405 8199,7503 8254,7592 8284,7689 8315,7785 8311,7860 8271,7928 8232,7997 8169,8038 8070,8060 7972,8082 7867,8078 7736,8048 7604,8017 7486,7970 7357,7895 7228,7821 7127,7742 7035,7643 6943,7545 6888,7456 6858,7359 6827,7263 6831,7188 6871,7120 6910,7051 6973,7010 7072,6988 7170,6966 7275,6970 7406,7001 7538,7031 7656,7078 7785,7153 L 7785,7153 Z"/>
          <path fill="none" stroke="rgb(0,0,0)" d="M 7785,7153 C 7914,7227 8015,7306 8107,7405 8199,7503 8254,7592 8284,7689 8315,7785 8311,7860 8271,7928 8232,7997 8169,8038 8070,8060 7972,8082 7867,8078 7736,8048 7604,8017 7486,7970 7357,7895 7228,7821 7127,7742 7035,7643 6943,7545 6888,7456 6858,7359 6827,7263 6831,7188 6871,7120 6910,7051 6973,7010 7072,6988 7170,6966 7275,6970 7406,7001 7538,7031 7656,7078 7785,7153 L 7785,7153 Z"/>
         </g>
        </g>
        <g class="com.sun.star.drawing.CustomShape">
         <g id="id4">
          <rect class="BoundingBox" stroke="none" fill="none" x="6800" y="7113" width="1444" height="993"/>
          <path fill="rgb(255,219,182)" stroke="none" d="M 7686,7324 C 7814,7398 7917,7474 8014,7564 8110,7655 8172,7734 8210,7817 8248,7899 8252,7961 8222,8013 8191,8066 8136,8094 8046,8102 7955,8110 7856,8096 7730,8058 7603,8020 7486,7969 7357,7894 7229,7820 7126,7745 7029,7654 6933,7563 6871,7484 6833,7402 6795,7319 6791,7257 6821,7205 6852,7152 6907,7125 6997,7116 7088,7108 7187,7122 7313,7160 7440,7198 7557,7250 7686,7324 L 7686,7324 Z"/>
          <path fill="none" stroke="rgb(0,0,0)" d="M 7686,7324 C 7814,7398 7917,7474 8014,7564 8110,7655 8172,7734 8210,7817 8248,7899 8252,7961 8222,8013 8191,8066 8136,8094 8046,8102 7955,8110 7856,8096 7730,8058 7603,8020 7486,7969 7357,7894 7229,7820 7126,7745 7029,7654 6933,7563 6871,7484 6833,7402 6795,7319 6791,7257 6821,7205 6852,7152 6907,7125 6997,7116 7088,7108 7187,7122 7313,7160 7440,7198 7557,7250 7686,7324 L 7686,7324 Z"/>
         </g>
        </g>
       </g>
       <g class="Group">
        <g class="com.sun.star.drawing.CustomShape">
         <g id="id5">
          <rect class="BoundingBox" stroke="none" fill="none" x="1777" y="6957" width="1469" height="1103"/>
          <path fill="rgb(255,255,255)" stroke="none" d="M 2297,7137 C 2168,7211 2067,7290 1975,7389 1883,7487 1828,7576 1798,7673 1767,7769 1771,7844 1811,7912 1850,7981 1913,8022 2012,8044 2110,8066 2215,8062 2346,8032 2478,8001 2596,7954 2725,7879 2854,7805 2955,7726 3047,7627 3139,7529 3194,7440 3224,7343 3255,7247 3251,7172 3211,7104 3172,7035 3109,6994 3010,6972 2912,6950 2807,6954 2676,6985 2544,7015 2426,7062 2297,7137 L 2297,7137 Z"/>
          <path fill="none" stroke="rgb(0,0,0)" d="M 2297,7137 C 2168,7211 2067,7290 1975,7389 1883,7487 1828,7576 1798,7673 1767,7769 1771,7844 1811,7912 1850,7981 1913,8022 2012,8044 2110,8066 2215,8062 2346,8032 2478,8001 2596,7954 2725,7879 2854,7805 2955,7726 3047,7627 3139,7529 3194,7440 3224,7343 3255,7247 3251,7172 3211,7104 3172,7035 3109,6994 3010,6972 2912,6950 2807,6954 2676,6985 2544,7015 2426,7062 2297,7137 L 2297,7137 Z"/>
         </g>
        </g>
        <g class="com.sun.star.drawing.CustomShape">
         <g id="id6">
          <rect class="BoundingBox" stroke="none" fill="none" x="1842" y="7097" width="1444" height="993"/>
          <path fill="rgb(255,219,182)" stroke="none" d="M 2399,7308 C 2270,7383 2167,7458 2071,7549 1974,7639 1913,7718 1875,7801 1837,7883 1833,7945 1863,7997 1894,8050 1949,8077 2039,8086 2130,8094 2229,8080 2356,8042 2483,8004 2599,7952 2728,7878 2857,7804 2960,7728 3056,7638 3153,7547 3214,7468 3252,7386 3290,7303 3294,7241 3264,7189 3233,7136 3178,7109 3088,7101 2997,7092 2898,7106 2771,7144 2644,7182 2528,7234 2399,7308 L 2399,7308 Z"/>
          <path fill="none" stroke="rgb(0,0,0)" d="M 2399,7308 C 2270,7383 2167,7458 2071,7549 1974,7639 1913,7718 1875,7801 1837,7883 1833,7945 1863,7997 1894,8050 1949,8077 2039,8086 2130,8094 2229,8080 2356,8042 2483,8004 2599,7952 2728,7878 2857,7804 2960,7728 3056,7638 3153,7547 3214,7468 3252,7386 3290,7303 3294,7241 3264,7189 3233,7136 3178,7109 3088,7101 2997,7092 2898,7106 2771,7144 2644,7182 2528,7234 2399,7308 L 2399,7308 Z"/>
         </g>
        </g>
       </g>
       <g class="com.sun.star.drawing.ClosedBezierShape">
        <g id="id7">
         <rect class="BoundingBox" stroke="none" fill="none" x="5877" y="5999" width="886" height="955"/>
         <path fill="rgb(255,245,206)" stroke="none" d="M 6655,6000 C 6274,6190 6139,6445 5878,6718 6169,6796 6460,6874 6750,6952 6720,6601 6840,6481 6655,6000 Z"/>
         <path fill="none" stroke="rgb(0,0,0)" d="M 6655,6000 C 6274,6190 6139,6445 5878,6718 6169,6796 6460,6874 6750,6952 6720,6601 6840,6481 6655,6000 Z"/>
        </g>
       </g>
       <g class="com.sun.star.drawing.ClosedBezierShape">
        <g id="id8">
         <rect class="BoundingBox" stroke="none" fill="none" x="3204" y="6000" width="886" height="955"/>
         <path fill="rgb(255,245,206)" stroke="none" d="M 3311,6001 C 3692,6191 3828,6446 4088,6719 3797,6797 3506,6875 3216,6953 3246,6602 3126,6482 3311,6001 Z"/>
         <path fill="none" stroke="rgb(0,0,0)" d="M 3311,6001 C 3692,6191 3828,6446 4088,6719 3797,6797 3506,6875 3216,6953 3246,6602 3126,6482 3311,6001 Z"/>
        </g>
       </g>
       <g class="com.sun.star.drawing.CustomShape">
        <g id="id9">
         <rect class="BoundingBox" stroke="none" fill="none" x="2360" y="6095" width="5327" height="5707"/>
         <path fill="rgb(255,255,255)" stroke="none" d="M 5023,6096 C 5513,6096 5930,6215 6354,6478 6779,6740 7084,7067 7329,7522 7574,7977 7686,8423 7686,8948 7686,9473 7574,9919 7329,10374 7084,10829 6779,11156 6354,11418 5930,11681 5513,11801 5023,11801 4533,11801 4116,11681 3692,11418 3267,11156 2962,10829 2717,10374 2472,9919 2361,9473 2361,8948 2360,8423 2472,7977 2717,7522 2962,7067 3267,6740 3692,6478 4116,6215 4533,6096 5023,6096 L 5023,6096 Z"/>
         <path fill="none" stroke="rgb(0,0,0)" d="M 5023,6096 C 5513,6096 5930,6215 6354,6478 6779,6740 7084,7067 7329,7522 7574,7977 7686,8423 7686,8948 7686,9473 7574,9919 7329,10374 7084,10829 6779,11156 6354,11418 5930,11681 5513,11801 5023,11801 4533,11801 4116,11681 3692,11418 3267,11156 2962,10829 2717,10374 2472,9919 2361,9473 2361,8948 2360,8423 2472,7977 2717,7522 2962,7067 3267,6740 3692,6478 4116,6215 4533,6096 5023,6096 L 5023,6096 Z"/>
        </g>
       </g>
       <g class="com.sun.star.drawing.ClosedBezierShape">
        <g id="id10">
         <rect class="BoundingBox" stroke="none" fill="none" x="2650" y="10206" width="4746" height="1785"/>
         <path fill="rgb(255,219,182)" stroke="none" d="M 7304,10279 C 7506,10440 7304,10757 7304,10944 7304,11132 7118,11320 6916,11482 6715,11643 6465,11760 6116,11853 5767,11946 5426,11989 5023,11989 4619,11989 4278,11946 3929,11853 3580,11760 3330,11643 3129,11482 2927,11320 2741,11132 2741,10944 2740,10757 2539,10440 2741,10279 2942,10117 4619,10279 5023,10279 5023,10279 7103,10117 7304,10279 Z"/>
         <path fill="none" stroke="rgb(0,0,0)" d="M 7304,10279 C 7506,10440 7304,10757 7304,10944 7304,11132 7118,11320 6916,11482 6715,11643 6465,11760 6116,11853 5767,11946 5426,11989 5023,11989 4619,11989 4278,11946 3929,11853 3580,11760 3330,11643 3129,11482 2927,11320 2741,11132 2741,10944 2740,10757 2539,10440 2741,10279 2942,10117 4619,10279 5023,10279 5023,10279 7103,10117 7304,10279 Z"/>
        </g>
       </g>
       <g class="com.sun.star.drawing.CustomShape">
        <g id="id11">
         <rect class="BoundingBox" stroke="none" fill="none" x="3786" y="7521" width="573" height="1049"/>
         <path fill="rgb(0,0,0)" stroke="none" d="M 4072,7522 C 4125,7522 4169,7543 4215,7592 4260,7640 4293,7700 4319,7783 4346,7867 4358,7949 4358,8045 4358,8141 4346,8223 4319,8307 4293,8390 4260,8450 4215,8498 4169,8547 4125,8569 4072,8569 4019,8569 3975,8547 3929,8498 3884,8450 3851,8390 3825,8307 3798,8223 3787,8141 3787,8045 3787,7949 3798,7867 3825,7783 3851,7700 3884,7640 3929,7592 3975,7543 4019,7522 4072,7522 L 4072,7522 Z"/>
         <path fill="none" stroke="rgb(0,0,0)" d="M 4072,7522 C 4125,7522 4169,7543 4215,7592 4260,7640 4293,7700 4319,7783 4346,7867 4358,7949 4358,8045 4358,8141 4346,8223 4319,8307 4293,8390 4260,8450 4215,8498 4169,8547 4125,8569 4072,8569 4019,8569 3975,8547 3929,8498 3884,8450 3851,8390 3825,8307 3798,8223 3787,8141 3787,8045 3787,7949 3798,7867 3825,7783 3851,7700 3884,7640 3929,7592 3975,7543 4019,7522 4072,7522 Z"/>
        </g>
       </g>
       <g class="com.sun.star.drawing.CustomShape">
        <g id="id12">
         <rect class="BoundingBox" stroke="none" fill="none" x="5497" y="7521" width="573" height="1049"/>
         <path fill="rgb(0,0,0)" stroke="none" d="M 5783,7522 C 5836,7522 5880,7543 5926,7592 5971,7640 6004,7700 6030,7783 6057,7867 6069,7949 6069,8045 6069,8141 6057,8223 6030,8307 6004,8390 5971,8450 5926,8498 5880,8547 5836,8569 5783,8569 5730,8569 5686,8547 5640,8498 5595,8450 5562,8390 5536,8307 5509,8223 5498,8141 5498,8045 5498,7949 5509,7867 5536,7783 5562,7700 5595,7640 5640,7592 5686,7543 5730,7522 5783,7522 L 5783,7522 Z"/>
         <path fill="none" stroke="rgb(0,0,0)" d="M 5783,7522 C 5836,7522 5880,7543 5926,7592 5971,7640 6004,7700 6030,7783 6057,7867 6069,7949 6069,8045 6069,8141 6057,8223 6030,8307 6004,8390 5971,8450 5926,8498 5880,8547 5836,8569 5783,8569 5730,8569 5686,8547 5640,8498 5595,8450 5562,8390 5536,8307 5509,8223 5498,8141 5498,8045 5498,7949 5509,7867 5536,7783 5562,7700 5595,7640 5640,7592 5686,7543 5730,7522 5783,7522 Z"/>
        </g>
       </g>
       <g class="com.sun.star.drawing.CustomShape">
        <g id="id13">
         <rect class="BoundingBox" stroke="none" fill="none" x="3784" y="11039" width="289" height="383"/>
         <path fill="rgb(0,0,0)" stroke="none" d="M 3928,11040 C 3954,11040 3977,11047 4000,11065 4022,11083 4039,11104 4052,11135 4065,11165 4071,11195 4071,11230 4071,11265 4065,11295 4052,11325 4039,11356 4022,11377 4000,11395 3977,11413 3954,11421 3928,11421 3902,11421 3879,11413 3857,11395 3834,11377 3817,11356 3804,11325 3791,11295 3785,11265 3785,11230 3785,11195 3791,11165 3804,11135 3817,11104 3834,11083 3857,11065 3879,11047 3902,11040 3928,11040 L 3928,11040 Z"/>
         <path fill="none" stroke="rgb(0,0,0)" d="M 3928,11040 C 3954,11040 3977,11047 4000,11065 4022,11083 4039,11104 4052,11135 4065,11165 4071,11195 4071,11230 4071,11265 4065,11295 4052,11325 4039,11356 4022,11377 4000,11395 3977,11413 3954,11421 3928,11421 3902,11421 3879,11413 3857,11395 3834,11377 3817,11356 3804,11325 3791,11295 3785,11265 3785,11230 3785,11195 3791,11165 3804,11135 3817,11104 3834,11083 3857,11065 3879,11047 3902,11040 3928,11040 Z"/>
        </g>
       </g>
       <g class="com.sun.star.drawing.CustomShape">
        <g id="id14">
         <rect class="BoundingBox" stroke="none" fill="none" x="5972" y="11039" width="289" height="383"/>
         <path fill="rgb(0,0,0)" stroke="none" d="M 6116,11040 C 6142,11040 6165,11047 6188,11065 6211,11083 6227,11104 6240,11135 6253,11165 6260,11195 6260,11230 6260,11265 6253,11295 6240,11325 6227,11356 6211,11377 6188,11395 6165,11413 6142,11421 6116,11421 6090,11421 6067,11413 6044,11395 6021,11377 6005,11356 5992,11325 5979,11295 5973,11265 5973,11230 5973,11195 5979,11165 5992,11135 6005,11104 6021,11083 6044,11065 6067,11047 6090,11040 6116,11040 L 6116,11040 Z"/>
         <path fill="none" stroke="rgb(0,0,0)" d="M 6116,11040 C 6142,11040 6165,11047 6188,11065 6211,11083 6227,11104 6240,11135 6253,11165 6260,11195 6260,11230 6260,11265 6253,11295 6240,11325 6227,11356 6211,11377 6188,11395 6165,11413 6142,11421 6116,11421 6090,11421 6067,11413 6044,11395 6021,11377 6005,11356 5992,11325 5979,11295 5973,11265 5973,11230 5973,11195 5979,11165 5992,11135 6005,11104 6021,11083 6044,11065 6067,11047 6090,11040 6116,11040 Z"/>
        </g>
       </g>
      </g>
     </g>
    </g>
   </g>
  </g>
 </g>
</svg>