<?xml version="1.0" encoding="UTF-8"?>
<!DOCTYPE svg PUBLIC "-//W3C//DTD SVG 1.1//EN" "http://www.w3.org/Graphics/SVG/1.1/DTD/svg11.dtd">
<svg version="1.2" width="66.78mm" height="62.83mm" viewBox="4099 -1101 6678 6283" preserveAspectRatio="xMidYMid" fill-rule="evenodd" stroke-width="28.222" stroke-linejoin="round" xmlns="http://www.w3.org/2000/svg" xmlns:ooo="http://xml.openoffice.org/svg/export" xmlns:xlink="http://www.w3.org/1999/xlink" xmlns:presentation="http://sun.com/xmlns/staroffice/presentation" xmlns:smil="http://www.w3.org/2001/SMIL20/" xmlns:anim="urn:oasis:names:tc:opendocument:xmlns:animation:1.0" xml:space="preserve">
 <defs class="ClipPathGroup">
  <clipPath id="presentation_clip_path" clipPathUnits="userSpaceOnUse">
   <rect x="4099" y="-1101" width="6678" height="6283"/>
  </clipPath>
  <clipPath id="presentation_clip_path_shrink" clipPathUnits="userSpaceOnUse">
   <rect x="4105" y="-1095" width="6665" height="6271"/>
  </clipPath>
 </defs>
 <defs class="TextShapeIndex">
  <g ooo:slide="id1" ooo:id-list="id3 id4 id5 id6 id7 id8 id9 id10 id11 id12 id13 id14 id15"/>
 </defs>
 <defs class="EmbeddedBulletChars">
  <g id="bullet-char-template-57356" transform="scale(0.00048828125,-0.00048828125)">
   <path d="M 580,1141 L 1163,571 580,0 -4,571 580,1141 Z"/>
  </g>
  <g id="bullet-char-template-57354" transform="scale(0.00048828125,-0.00048828125)">
   <path d="M 8,1128 L 1137,1128 1137,0 8,0 8,1128 Z"/>
  </g>
  <g id="bullet-char-template-10146" transform="scale(0.00048828125,-0.00048828125)">
   <path d="M 174,0 L 602,739 174,1481 1456,739 174,0 Z M 1358,739 L 309,1346 659,739 1358,739 Z"/>
  </g>
  <g id="bullet-char-template-10132" transform="scale(0.00048828125,-0.00048828125)">
   <path d="M 2015,739 L 1276,0 717,0 1260,543 174,543 174,936 1260,936 717,1481 1274,1481 2015,739 Z"/>
  </g>
  <g id="bullet-char-template-10007" transform="scale(0.00048828125,-0.00048828125)">
   <path d="M 0,-2 C -7,14 -16,27 -25,37 L 356,567 C 262,823 215,952 215,954 215,979 228,992 255,992 264,992 276,990 289,987 310,991 331,999 354,1012 L 381,999 492,748 772,1049 836,1024 860,1049 C 881,1039 901,1025 922,1006 886,937 835,863 770,784 769,783 710,716 594,584 L 774,223 C 774,196 753,168 711,139 L 727,119 C 717,90 699,76 672,76 641,76 570,178 457,381 L 164,-76 C 142,-110 111,-127 72,-127 30,-127 9,-110 8,-76 1,-67 -2,-52 -2,-32 -2,-23 -1,-13 0,-2 Z"/>
  </g>
  <g id="bullet-char-template-10004" transform="scale(0.00048828125,-0.00048828125)">
   <path d="M 285,-33 C 182,-33 111,30 74,156 52,228 41,333 41,471 41,549 55,616 82,672 116,743 169,778 240,778 293,778 328,747 346,684 L 369,508 C 377,444 397,411 428,410 L 1163,1116 C 1174,1127 1196,1133 1229,1133 1271,1133 1292,1118 1292,1087 L 1292,965 C 1292,929 1282,901 1262,881 L 442,47 C 390,-6 338,-33 285,-33 Z"/>
  </g>
  <g id="bullet-char-template-9679" transform="scale(0.00048828125,-0.00048828125)">
   <path d="M 813,0 C 632,0 489,54 383,161 276,268 223,411 223,592 223,773 276,916 383,1023 489,1130 632,1184 813,1184 992,1184 1136,1130 1245,1023 1353,916 1407,772 1407,592 1407,412 1353,268 1245,161 1136,54 992,0 813,0 Z"/>
  </g>
  <g id="bullet-char-template-8226" transform="scale(0.00048828125,-0.00048828125)">
   <path d="M 346,457 C 273,457 209,483 155,535 101,586 74,649 74,723 74,796 101,859 155,911 209,963 273,989 346,989 419,989 480,963 531,910 582,859 608,796 608,723 608,648 583,586 532,535 482,483 420,457 346,457 Z"/>
  </g>
  <g id="bullet-char-template-8211" transform="scale(0.00048828125,-0.00048828125)">
   <path d="M -4,459 L 1135,459 1135,606 -4,606 -4,459 Z"/>
  </g>
  <g id="bullet-char-template-61548" transform="scale(0.00048828125,-0.00048828125)">
   <path d="M 173,740 C 173,903 231,1043 346,1159 462,1274 601,1332 765,1332 928,1332 1067,1274 1183,1159 1299,1043 1357,903 1357,740 1357,577 1299,437 1183,322 1067,206 928,148 765,148 601,148 462,206 346,322 231,437 173,577 173,740 Z"/>
  </g>
 </defs>
 <defs class="TextEmbeddedBitmaps"/>
 <g class="SlideGroup">
  <g>
   <g id="container-id1">
    <g id="id1" class="Slide" clip-path="url(#presentation_clip_path)">
     <g class="Page">
      <g class="Group">
       <g class="com.sun.star.drawing.ClosedBezierShape">
        <g id="id3">
         <rect class="BoundingBox" stroke="none" fill="none" x="5537" y="3699" width="3746" height="1485"/>
         <path fill="rgb(255,219,182)" stroke="none" d="M 9210,3760 C 9369,3894 9210,4157 9210,4313 9210,4469 9063,4626 8904,4760 8745,4894 8548,4992 8272,5069 7997,5146 7728,5182 7410,5182 7091,5182 6822,5146 6547,5069 6271,4992 6074,4894 5915,4760 5756,4626 5609,4469 5609,4313 5608,4157 5450,3894 5609,3760 5768,3625 7091,3760 7410,3760 7410,3760 9051,3625 9210,3760 Z"/>
         <path fill="none" stroke="rgb(0,0,0)" d="M 9210,3760 C 9369,3894 9210,4157 9210,4313 9210,4469 9063,4626 8904,4760 8745,4894 8548,4992 8272,5069 7997,5146 7728,5182 7410,5182 7091,5182 6822,5146 6547,5069 6271,4992 6074,4894 5915,4760 5756,4626 5609,4469 5609,4313 5608,4157 5450,3894 5609,3760 5768,3625 7091,3760 7410,3760 7410,3760 9051,3625 9210,3760 Z"/>
        </g>
       </g>
       <g class="Group">
        <g class="com.sun.star.drawing.CustomShape">
         <g id="id4">
          <rect class="BoundingBox" stroke="none" fill="none" x="9159" y="-5" width="1619" height="859"/>
          <path fill="rgb(255,255,255)" stroke="none" d="M 9968,-4 C 10117,-4 10243,13 10372,53 10501,92 10594,141 10668,210 10743,278 10777,345 10777,424 10777,503 10743,570 10668,638 10594,707 10501,756 10372,795 10243,835 10117,852 9968,852 9819,852 9693,835 9564,795 9435,756 9342,707 9268,638 9193,570 9160,503 9160,424 9160,345 9193,278 9268,210 9342,141 9435,92 9564,53 9693,13 9819,-4 9968,-4 L 9968,-4 Z"/>
          <path fill="none" stroke="rgb(0,0,0)" d="M 9968,-4 C 10117,-4 10243,13 10372,53 10501,92 10594,141 10668,210 10743,278 10777,345 10777,424 10777,503 10743,570 10668,638 10594,707 10501,756 10372,795 10243,835 10117,852 9968,852 9819,852 9693,835 9564,795 9435,756 9342,707 9268,638 9193,570 9160,503 9160,424 9160,345 9193,278 9268,210 9342,141 9435,92 9564,53 9693,13 9819,-4 9968,-4 Z"/>
         </g>
        </g>
        <g class="com.sun.star.drawing.CustomShape">
         <g id="id5">
          <rect class="BoundingBox" stroke="none" fill="none" x="9157" y="192" width="1620" height="661"/>
          <path fill="rgb(255,219,182)" stroke="none" d="M 9966,193 C 10115,193 10242,207 10371,237 10500,267 10592,305 10667,358 10741,410 10775,461 10775,522 10776,583 10742,634 10667,687 10593,739 10501,777 10372,807 10243,837 10116,851 9968,851 9819,851 9692,837 9563,807 9434,777 9342,739 9267,687 9193,634 9159,583 9158,522 9158,461 9192,410 9267,358 9341,305 9433,267 9562,237 9691,207 9818,193 9966,193 L 9966,193 Z"/>
          <path fill="none" stroke="rgb(0,0,0)" d="M 9966,193 C 10115,193 10242,207 10371,237 10500,267 10592,305 10667,358 10741,410 10775,461 10775,522 10776,583 10742,634 10667,687 10593,739 10501,777 10372,807 10243,837 10116,851 9968,851 9819,851 9692,837 9563,807 9434,777 9342,739 9267,687 9193,634 9159,583 9158,522 9158,461 9192,410 9267,358 9341,305 9433,267 9562,237 9691,207 9818,193 9966,193 Z"/>
         </g>
        </g>
       </g>
       <g class="Group">
        <g class="com.sun.star.drawing.CustomShape">
         <g id="id6">
          <rect class="BoundingBox" stroke="none" fill="none" x="4099" y="-21" width="1620" height="859"/>
          <path fill="rgb(255,255,255)" stroke="none" d="M 4908,-21 C 4759,-21 4633,-3 4504,37 4375,76 4282,125 4208,194 4133,262 4100,329 4100,408 4100,487 4133,554 4208,622 4282,691 4375,740 4504,779 4633,819 4759,836 4908,836 5057,836 5183,819 5312,779 5441,740 5534,691 5608,622 5683,554 5717,487 5717,408 5717,329 5683,262 5608,194 5534,125 5441,76 5312,37 5183,-3 5057,-21 4908,-21 L 4908,-21 Z"/>
          <path fill="none" stroke="rgb(0,0,0)" d="M 4908,-21 C 4759,-21 4633,-3 4504,37 4375,76 4282,125 4208,194 4133,262 4100,329 4100,408 4100,487 4133,554 4208,622 4282,691 4375,740 4504,779 4633,819 4759,836 4908,836 5057,836 5183,819 5312,779 5441,740 5534,691 5608,622 5683,554 5717,487 5717,408 5717,329 5683,262 5608,194 5534,125 5441,76 5312,37 5183,-3 5057,-21 4908,-21 L 4908,-21 Z"/>
         </g>
        </g>
        <g class="com.sun.star.drawing.CustomShape">
         <g id="id7">
          <rect class="BoundingBox" stroke="none" fill="none" x="4101" y="177" width="1620" height="661"/>
          <path fill="rgb(255,219,182)" stroke="none" d="M 4910,178 C 4761,178 4635,192 4506,222 4377,252 4284,290 4210,343 4135,395 4102,446 4102,507 4102,568 4135,619 4210,672 4284,724 4377,762 4506,792 4635,822 4761,836 4910,836 5059,836 5185,822 5314,792 5443,762 5536,724 5610,672 5685,619 5719,568 5719,507 5719,446 5685,395 5610,343 5536,290 5443,252 5314,222 5185,192 5059,178 4910,178 L 4910,178 Z"/>
          <path fill="none" stroke="rgb(0,0,0)" d="M 4910,178 C 4761,178 4635,192 4506,222 4377,252 4284,290 4210,343 4135,395 4102,446 4102,507 4102,568 4135,619 4210,672 4284,724 4377,762 4506,792 4635,822 4761,836 4910,836 5059,836 5185,822 5314,792 5443,762 5536,724 5610,672 5685,619 5719,568 5719,507 5719,446 5685,395 5610,343 5536,290 5443,252 5314,222 5185,192 5059,178 4910,178 L 4910,178 Z"/>
         </g>
        </g>
       </g>
       <g class="com.sun.star.drawing.ClosedBezierShape">
        <g id="id8">
         <rect class="BoundingBox" stroke="none" fill="none" x="8273" y="-1101" width="886" height="955"/>
         <path fill="rgb(255,245,206)" stroke="none" d="M 9051,-1100 C 8670,-910 8535,-655 8274,-382 8565,-304 8856,-226 9146,-148 9116,-499 9236,-619 9051,-1100 Z"/>
         <path fill="none" stroke="rgb(0,0,0)" d="M 9051,-1100 C 8670,-910 8535,-655 8274,-382 8565,-304 8856,-226 9146,-148 9116,-499 9236,-619 9051,-1100 Z"/>
        </g>
       </g>
       <g class="com.sun.star.drawing.ClosedBezierShape">
        <g id="id9">
         <rect class="BoundingBox" stroke="none" fill="none" x="5600" y="-1100" width="886" height="955"/>
         <path fill="rgb(255,245,206)" stroke="none" d="M 5707,-1099 C 6088,-909 6224,-654 6484,-381 6193,-303 5902,-225 5612,-147 5642,-498 5522,-618 5707,-1099 Z"/>
         <path fill="none" stroke="rgb(0,0,0)" d="M 5707,-1099 C 6088,-909 6224,-654 6484,-381 6193,-303 5902,-225 5612,-147 5642,-498 5522,-618 5707,-1099 Z"/>
        </g>
       </g>
       <g class="com.sun.star.drawing.CustomShape">
        <g id="id10">
         <rect class="BoundingBox" stroke="none" fill="none" x="4756" y="-1005" width="5327" height="5707"/>
         <path fill="rgb(255,255,255)" stroke="none" d="M 7419,-1005 C 7909,-1005 8326,-885 8750,-622 9175,-360 9480,-33 9725,422 9970,877 10082,1323 10082,1848 10082,2373 9970,2819 9725,3274 9480,3729 9175,4056 8750,4318 8326,4581 7909,4701 7419,4701 6929,4701 6512,4581 6088,4318 5663,4056 5358,3729 5113,3274 4868,2819 4757,2373 4757,1848 4756,1323 4868,877 5113,422 5358,-33 5663,-360 6088,-622 6512,-885 6929,-1005 7419,-1005 L 7419,-1005 Z"/>
         <path fill="none" stroke="rgb(0,0,0)" d="M 7419,-1005 C 7909,-1005 8326,-885 8750,-622 9175,-360 9480,-33 9725,422 9970,877 10082,1323 10082,1848 10082,2373 9970,2819 9725,3274 9480,3729 9175,4056 8750,4318 8326,4581 7909,4701 7419,4701 6929,4701 6512,4581 6088,4318 5663,4056 5358,3729 5113,3274 4868,2819 4757,2373 4757,1848 4756,1323 4868,877 5113,422 5358,-33 5663,-360 6088,-622 6512,-885 6929,-1005 7419,-1005 L 7419,-1005 Z"/>
        </g>
       </g>
       <g class="com.sun.star.drawing.ClosedBezierShape">
        <g id="id11">
         <rect class="BoundingBox" stroke="none" fill="none" x="5046" y="3106" width="4746" height="1785"/>
         <path fill="rgb(255,219,182)" stroke="none" d="M 9700,3179 C 9902,3340 9700,3657 9700,3844 9700,4032 9514,4220 9312,4382 9111,4543 8861,4660 8512,4753 8163,4846 7822,4889 7419,4889 7015,4889 6674,4846 6325,4753 5976,4660 5726,4543 5525,4382 5323,4220 5137,4032 5137,3844 5136,3657 4935,3340 5137,3179 5338,3017 7015,3179 7419,3179 7419,3179 9499,3017 9700,3179 Z"/>
         <path fill="none" stroke="rgb(0,0,0)" d="M 9700,3179 C 9902,3340 9700,3657 9700,3844 9700,4032 9514,4220 9312,4382 9111,4543 8861,4660 8512,4753 8163,4846 7822,4889 7419,4889 7015,4889 6674,4846 6325,4753 5976,4660 5726,4543 5525,4382 5323,4220 5137,4032 5137,3844 5136,3657 4935,3340 5137,3179 5338,3017 7015,3179 7419,3179 7419,3179 9499,3017 9700,3179 Z"/>
        </g>
       </g>
       <g class="com.sun.star.drawing.ClosedBezierShape">
        <g id="id12">
         <rect class="BoundingBox" stroke="none" fill="none" x="7893" y="799" width="574" height="290"/>
         <path fill="rgb(0,0,0)" stroke="none" d="M 8181,800 C 8234,800 8399,933 8426,949 8453,965 8465,981 8465,999 8465,1017 8453,1033 8426,1049 8399,1065 8368,1076 8322,1086 8276,1096 8234,1000 8181,1000 8128,1000 8082,1096 8036,1086 7990,1076 7959,1065 7932,1049 7905,1033 7894,1017 7894,999 7894,981 7905,965 7932,949 7959,933 8128,800 8181,800 Z"/>
         <path fill="none" stroke="rgb(0,0,0)" d="M 8181,800 C 8234,800 8399,933 8426,949 8453,965 8465,981 8465,999 8465,1017 8453,1033 8426,1049 8399,1065 8368,1076 8322,1086 8276,1096 8234,1000 8181,1000 8128,1000 8082,1096 8036,1086 7990,1076 7959,1065 7932,1049 7905,1033 7894,1017 7894,999 7894,981 7905,965 7932,949 7959,933 8128,800 8181,800 Z"/>
        </g>
       </g>
       <g class="com.sun.star.drawing.CustomShape">
        <g id="id13">
         <rect class="BoundingBox" stroke="none" fill="none" x="6180" y="3939" width="289" height="383"/>
         <path fill="rgb(0,0,0)" stroke="none" d="M 6324,3939 C 6350,3939 6373,3947 6396,3965 6418,3983 6435,4004 6448,4035 6461,4065 6467,4095 6467,4130 6467,4165 6461,4195 6448,4225 6435,4256 6418,4277 6396,4295 6373,4313 6350,4320 6324,4320 6298,4320 6275,4313 6253,4295 6230,4277 6213,4256 6200,4225 6187,4195 6181,4165 6181,4130 6181,4095 6187,4065 6200,4035 6213,4004 6230,3983 6253,3965 6275,3947 6298,3939 6324,3939 L 6324,3939 Z"/>
         <path fill="none" stroke="rgb(0,0,0)" d="M 6324,3939 C 6350,3939 6373,3947 6396,3965 6418,3983 6435,4004 6448,4035 6461,4065 6467,4095 6467,4130 6467,4165 6461,4195 6448,4225 6435,4256 6418,4277 6396,4295 6373,4313 6350,4320 6324,4320 6298,4320 6275,4313 6253,4295 6230,4277 6213,4256 6200,4225 6187,4195 6181,4165 6181,4130 6181,4095 6187,4065 6200,4035 6213,4004 6230,3983 6253,3965 6275,3947 6298,3939 6324,3939 Z"/>
        </g>
       </g>
       <g class="com.sun.star.drawing.CustomShape">
        <g id="id14">
         <rect class="BoundingBox" stroke="none" fill="none" x="8368" y="3939" width="289" height="383"/>
         <path fill="rgb(0,0,0)" stroke="none" d="M 8512,3939 C 8538,3939 8561,3947 8584,3965 8607,3983 8623,4004 8636,4035 8649,4065 8656,4095 8656,4130 8656,4165 8649,4195 8636,4225 8623,4256 8607,4277 8584,4295 8561,4313 8538,4320 8512,4320 8486,4320 8463,4313 8440,4295 8417,4277 8401,4256 8388,4225 8375,4195 8369,4165 8369,4130 8369,4095 8375,4065 8388,4035 8401,4004 8417,3983 8440,3965 8463,3947 8486,3939 8512,3939 L 8512,3939 Z"/>
         <path fill="none" stroke="rgb(0,0,0)" d="M 8512,3939 C 8538,3939 8561,3947 8584,3965 8607,3983 8623,4004 8636,4035 8649,4065 8656,4095 8656,4130 8656,4165 8649,4195 8636,4225 8623,4256 8607,4277 8584,4295 8561,4313 8538,4320 8512,4320 8486,4320 8463,4313 8440,4295 8417,4277 8401,4256 8388,4225 8375,4195 8369,4165 8369,4130 8369,4095 8375,4065 8388,4035 8401,4004 8417,3983 8440,3965 8463,3947 8486,3939 8512,3939 Z"/>
        </g>
       </g>
       <g class="com.sun.star.drawing.ClosedBezierShape">
        <g id="id15">
         <rect class="BoundingBox" stroke="none" fill="none" x="6180" y="799" width="574" height="290"/>
         <path fill="rgb(0,0,0)" stroke="none" d="M 6468,800 C 6521,800 6686,933 6713,949 6740,965 6752,981 6752,999 6752,1017 6740,1033 6713,1049 6686,1065 6655,1076 6609,1086 6563,1096 6521,1000 6468,1000 6415,1000 6369,1096 6323,1086 6277,1076 6246,1065 6219,1049 6192,1033 6181,1017 6181,999 6181,981 6192,965 6219,949 6246,933 6415,800 6468,800 Z"/>
         <path fill="none" stroke="rgb(0,0,0)" d="M 6468,800 C 6521,800 6686,933 6713,949 6740,965 6752,981 6752,999 6752,1017 6740,1033 6713,1049 6686,1065 6655,1076 6609,1086 6563,1096 6521,1000 6468,1000 6415,1000 6369,1096 6323,1086 6277,1076 6246,1065 6219,1049 6192,1033 6181,1017 6181,999 6181,981 6192,965 6219,949 6246,933 6415,800 6468,800 Z"/>
        </g>
       </g>
      </g>
     </g>
    </g>
   </g>
  </g>
 </g>
</svg>