<?xml version="1.0" encoding="UTF-8"?>
<!DOCTYPE svg PUBLIC "-//W3C//DTD SVG 1.1//EN" "http://www.w3.org/Graphics/SVG/1.1/DTD/svg11.dtd">
<svg version="1.2" width="140.01mm" height="100.02mm" viewBox="1000 999 14001 10002" preserveAspectRatio="xMidYMid" fill-rule="evenodd" stroke-width="28.222" stroke-linejoin="round" xmlns="http://www.w3.org/2000/svg" xmlns:ooo="http://xml.openoffice.org/svg/export" xmlns:xlink="http://www.w3.org/1999/xlink" xmlns:presentation="http://sun.com/xmlns/staroffice/presentation" xmlns:smil="http://www.w3.org/2001/SMIL20/" xmlns:anim="urn:oasis:names:tc:opendocument:xmlns:animation:1.0" xml:space="preserve">
 <defs class="ClipPathGroup">
  <clipPath id="presentation_clip_path" clipPathUnits="userSpaceOnUse">
   <rect x="1000" y="999" width="14001" height="10002"/>
  </clipPath>
  <clipPath id="presentation_clip_path_shrink" clipPathUnits="userSpaceOnUse">
   <rect x="1014" y="1009" width="13973" height="9982"/>
  </clipPath>
 </defs>
 <defs class="TextShapeIndex">
  <g ooo:slide="id1" ooo:id-list="id3 id4 id5 id6 id7 id8"/>
 </defs>
 <defs class="EmbeddedBulletChars">
  <g id="bullet-char-template-57356" transform="scale(0.00048828125,-0.00048828125)">
   <path d="M 580,1141 L 1163,571 580,0 -4,571 580,1141 Z"/>
  </g>
  <g id="bullet-char-template-57354" transform="scale(0.00048828125,-0.00048828125)">
   <path d="M 8,1128 L 1137,1128 1137,0 8,0 8,1128 Z"/>
  </g>
  <g id="bullet-char-template-10146" transform="scale(0.00048828125,-0.00048828125)">
   <path d="M 174,0 L 602,739 174,1481 1456,739 174,0 Z M 1358,739 L 309,1346 659,739 1358,739 Z"/>
  </g>
  <g id="bullet-char-template-10132" transform="scale(0.00048828125,-0.00048828125)">
   <path d="M 2015,739 L 1276,0 717,0 1260,543 174,543 174,936 1260,936 717,1481 1274,1481 2015,739 Z"/>
  </g>
  <g id="bullet-char-template-10007" transform="scale(0.00048828125,-0.00048828125)">
   <path d="M 0,-2 C -7,14 -16,27 -25,37 L 356,567 C 262,823 215,952 215,954 215,979 228,992 255,992 264,992 276,990 289,987 310,991 331,999 354,1012 L 381,999 492,748 772,1049 836,1024 860,1049 C 881,1039 901,1025 922,1006 886,937 835,863 770,784 769,783 710,716 594,584 L 774,223 C 774,196 753,168 711,139 L 727,119 C 717,90 699,76 672,76 641,76 570,178 457,381 L 164,-76 C 142,-110 111,-127 72,-127 30,-127 9,-110 8,-76 1,-67 -2,-52 -2,-32 -2,-23 -1,-13 0,-2 Z"/>
  </g>
  <g id="bullet-char-template-10004" transform="scale(0.00048828125,-0.00048828125)">
   <path d="M 285,-33 C 182,-33 111,30 74,156 52,228 41,333 41,471 41,549 55,616 82,672 116,743 169,778 240,778 293,778 328,747 346,684 L 369,508 C 377,444 397,411 428,410 L 1163,1116 C 1174,1127 1196,1133 1229,1133 1271,1133 1292,1118 1292,1087 L 1292,965 C 1292,929 1282,901 1262,881 L 442,47 C 390,-6 338,-33 285,-33 Z"/>
  </g>
  <g id="bullet-char-template-9679" transform="scale(0.00048828125,-0.00048828125)">
   <path d="M 813,0 C 632,0 489,54 383,161 276,268 223,411 223,592 223,773 276,916 383,1023 489,1130 632,1184 813,1184 992,1184 1136,1130 1245,1023 1353,916 1407,772 1407,592 1407,412 1353,268 1245,161 1136,54 992,0 813,0 Z"/>
  </g>
  <g id="bullet-char-template-8226" transform="scale(0.00048828125,-0.00048828125)">
   <path d="M 346,457 C 273,457 209,483 155,535 101,586 74,649 74,723 74,796 101,859 155,911 209,963 273,989 346,989 419,989 480,963 531,910 582,859 608,796 608,723 608,648 583,586 532,535 482,483 420,457 346,457 Z"/>
  </g>
  <g id="bullet-char-template-8211" transform="scale(0.00048828125,-0.00048828125)">
   <path d="M -4,459 L 1135,459 1135,606 -4,606 -4,459 Z"/>
  </g>
  <g id="bullet-char-template-61548" transform="scale(0.00048828125,-0.00048828125)">
   <path d="M 173,740 C 173,903 231,1043 346,1159 462,1274 601,1332 765,1332 928,1332 1067,1274 1183,1159 1299,1043 1357,903 1357,740 1357,577 1299,437 1183,322 1067,206 928,148 765,148 601,148 462,206 346,322 231,437 173,577 173,740 Z"/>
  </g>
 </defs>
 <defs class="TextEmbeddedBitmaps"/>
 <g class="SlideGroup">
  <g>
   <g id="container-id1">
    <g id="id1" class="Slide" clip-path="url(#presentation_clip_path)">
     <g class="Page">
      <g class="com.sun.star.drawing.CustomShape">
       <g id="id3">
        <rect class="BoundingBox" stroke="none" fill="none" x="1000" y="999" width="14001" height="10001"/>
        <path fill="rgb(222,230,239)" stroke="none" d="M 8000,10999 L 1000,10999 1000,999 15000,999 15000,10999 8000,10999 Z"/>
       </g>
      </g>
      <g class="com.sun.star.drawing.ClosedBezierShape">
       <g id="id4">
        <rect class="BoundingBox" stroke="none" fill="none" x="999" y="3998" width="14003" height="7004"/>
        <path fill="rgb(175,208,149)" stroke="none" d="M 15000,11000 L 1000,11000 1000,5978 C 1320,5733 1686,5522 2112,5335 2951,4967 3775,4799 4744,4799 5713,4799 6537,4967 7376,5335 7462,5372 7544,5411 7624,5450 8016,5083 8482,4788 9058,4535 9897,4167 10721,3999 11690,3999 12659,3999 13483,4167 14322,4535 14567,4643 14793,4758 15000,4883 L 15000,11000 Z"/>
        <path fill="none" stroke="rgb(0,0,0)" d="M 15000,11000 L 1000,11000 1000,5978 C 1320,5733 1686,5522 2112,5335 2951,4967 3775,4799 4744,4799 5713,4799 6537,4967 7376,5335 7462,5372 7544,5411 7624,5450 8016,5083 8482,4788 9058,4535 9897,4167 10721,3999 11690,3999 12659,3999 13483,4167 14322,4535 14567,4643 14793,4758 15000,4883 L 15000,11000 Z"/>
       </g>
      </g>
      <g class="com.sun.star.drawing.PolyPolygonShape">
       <g id="id5">
        <rect class="BoundingBox" stroke="none" fill="none" x="2799" y="7027" width="1616" height="674"/>
        <path fill="rgb(119,188,101)" stroke="none" d="M 3612,7279 L 3475,7137 3382,7397 3063,7238 3132,7480 2800,7507 3018,7699 4150,7682 4185,7596 4413,7413 4001,7406 4129,7211 3854,7363 3875,7028 3612,7279 Z"/>
        <path fill="none" stroke="rgb(0,0,0)" d="M 3612,7279 L 3475,7137 3382,7397 3063,7238 3132,7480 2800,7507 3018,7699 4150,7682 4185,7596 4413,7413 4001,7406 4129,7211 3854,7363 3875,7028 3612,7279 Z"/>
       </g>
      </g>
      <g class="com.sun.star.drawing.PolyPolygonShape">
       <g id="id6">
        <rect class="BoundingBox" stroke="none" fill="none" x="11086" y="6398" width="1376" height="574"/>
        <path fill="rgb(119,188,101)" stroke="none" d="M 11778,6613 L 11661,6492 11583,6713 11311,6578 11369,6784 11087,6806 11272,6970 12236,6955 12266,6883 12460,6726 12109,6721 12218,6555 11984,6684 12002,6399 11778,6613 Z"/>
        <path fill="none" stroke="rgb(0,0,0)" d="M 11778,6613 L 11661,6492 11583,6713 11311,6578 11369,6784 11087,6806 11272,6970 12236,6955 12266,6883 12460,6726 12109,6721 12218,6555 11984,6684 12002,6399 11778,6613 Z"/>
       </g>
      </g>
      <g class="com.sun.star.drawing.PolyPolygonShape">
       <g id="id7">
        <rect class="BoundingBox" stroke="none" fill="none" x="9499" y="8370" width="1756" height="732"/>
        <path fill="rgb(119,188,101)" stroke="none" d="M 10383,8644 L 10234,8490 10133,8773 9786,8599 9860,8863 9500,8891 9737,9100 10967,9081 11006,8989 11253,8789 10805,8782 10944,8570 10646,8735 10668,8371 10383,8644 Z"/>
        <path fill="none" stroke="rgb(0,0,0)" d="M 10383,8644 L 10234,8490 10133,8773 9786,8599 9860,8863 9500,8891 9737,9100 10967,9081 11006,8989 11253,8789 10805,8782 10944,8570 10646,8735 10668,8371 10383,8644 Z"/>
       </g>
      </g>
      <g class="com.sun.star.drawing.PolyPolygonShape">
       <g id="id8">
        <rect class="BoundingBox" stroke="none" fill="none" x="4799" y="9227" width="1856" height="774"/>
        <path fill="rgb(119,188,101)" stroke="none" d="M 5733,9517 L 5575,9353 5469,9652 5102,9469 5181,9748 4800,9778 5050,9999 6351,9979 6392,9881 6653,9670 6180,9662 6327,9439 6011,9612 6035,9228 5733,9517 Z"/>
        <path fill="none" stroke="rgb(0,0,0)" d="M 5733,9517 L 5575,9353 5469,9652 5102,9469 5181,9748 4800,9778 5050,9999 6351,9979 6392,9881 6653,9670 6180,9662 6327,9439 6011,9612 6035,9228 5733,9517 Z"/>
       </g>
      </g>
     </g>
    </g>
   </g>
  </g>
 </g>
</svg>