<?xml version="1.0" encoding="UTF-8"?>
<!DOCTYPE svg PUBLIC "-//W3C//DTD SVG 1.1//EN" "http://www.w3.org/Graphics/SVG/1.1/DTD/svg11.dtd">
<svg version="1.2" width="57.59mm" height="59.9mm" viewBox="11916 -4789 5759 5990" preserveAspectRatio="xMidYMid" fill-rule="evenodd" stroke-width="28.222" stroke-linejoin="round" xmlns="http://www.w3.org/2000/svg" xmlns:ooo="http://xml.openoffice.org/svg/export" xmlns:xlink="http://www.w3.org/1999/xlink" xmlns:presentation="http://sun.com/xmlns/staroffice/presentation" xmlns:smil="http://www.w3.org/2001/SMIL20/" xmlns:anim="urn:oasis:names:tc:opendocument:xmlns:animation:1.0" xml:space="preserve">
 <defs class="ClipPathGroup">
  <clipPath id="presentation_clip_path" clipPathUnits="userSpaceOnUse">
   <rect x="11916" y="-4789" width="5759" height="5990"/>
  </clipPath>
  <clipPath id="presentation_clip_path_shrink" clipPathUnits="userSpaceOnUse">
   <rect x="11921" y="-4784" width="5748" height="5979"/>
  </clipPath>
 </defs>
 <defs class="TextShapeIndex">
  <g ooo:slide="id1" ooo:id-list="id3 id4 id5 id6 id7 id8 id9 id10 id11 id12 id13 id14 id15 id16"/>
 </defs>
 <defs class="EmbeddedBulletChars">
  <g id="bullet-char-template-57356" transform="scale(0.00048828125,-0.00048828125)">
   <path d="M 580,1141 L 1163,571 580,0 -4,571 580,1141 Z"/>
  </g>
  <g id="bullet-char-template-57354" transform="scale(0.00048828125,-0.00048828125)">
   <path d="M 8,1128 L 1137,1128 1137,0 8,0 8,1128 Z"/>
  </g>
  <g id="bullet-char-template-10146" transform="scale(0.00048828125,-0.00048828125)">
   <path d="M 174,0 L 602,739 174,1481 1456,739 174,0 Z M 1358,739 L 309,1346 659,739 1358,739 Z"/>
  </g>
  <g id="bullet-char-template-10132" transform="scale(0.00048828125,-0.00048828125)">
   <path d="M 2015,739 L 1276,0 717,0 1260,543 174,543 174,936 1260,936 717,1481 1274,1481 2015,739 Z"/>
  </g>
  <g id="bullet-char-template-10007" transform="scale(0.00048828125,-0.00048828125)">
   <path d="M 0,-2 C -7,14 -16,27 -25,37 L 356,567 C 262,823 215,952 215,954 215,979 228,992 255,992 264,992 276,990 289,987 310,991 331,999 354,1012 L 381,999 492,748 772,1049 836,1024 860,1049 C 881,1039 901,1025 922,1006 886,937 835,863 770,784 769,783 710,716 594,584 L 774,223 C 774,196 753,168 711,139 L 727,119 C 717,90 699,76 672,76 641,76 570,178 457,381 L 164,-76 C 142,-110 111,-127 72,-127 30,-127 9,-110 8,-76 1,-67 -2,-52 -2,-32 -2,-23 -1,-13 0,-2 Z"/>
  </g>
  <g id="bullet-char-template-10004" transform="scale(0.00048828125,-0.00048828125)">
   <path d="M 285,-33 C 182,-33 111,30 74,156 52,228 41,333 41,471 41,549 55,616 82,672 116,743 169,778 240,778 293,778 328,747 346,684 L 369,508 C 377,444 397,411 428,410 L 1163,1116 C 1174,1127 1196,1133 1229,1133 1271,1133 1292,1118 1292,1087 L 1292,965 C 1292,929 1282,901 1262,881 L 442,47 C 390,-6 338,-33 285,-33 Z"/>
  </g>
  <g id="bullet-char-template-9679" transform="scale(0.00048828125,-0.00048828125)">
   <path d="M 813,0 C 632,0 489,54 383,161 276,268 223,411 223,592 223,773 276,916 383,1023 489,1130 632,1184 813,1184 992,1184 1136,1130 1245,1023 1353,916 1407,772 1407,592 1407,412 1353,268 1245,161 1136,54 992,0 813,0 Z"/>
  </g>
  <g id="bullet-char-template-8226" transform="scale(0.00048828125,-0.00048828125)">
   <path d="M 346,457 C 273,457 209,483 155,535 101,586 74,649 74,723 74,796 101,859 155,911 209,963 273,989 346,989 419,989 480,963 531,910 582,859 608,796 608,723 608,648 583,586 532,535 482,483 420,457 346,457 Z"/>
  </g>
  <g id="bullet-char-template-8211" transform="scale(0.00048828125,-0.00048828125)">
   <path d="M -4,459 L 1135,459 1135,606 -4,606 -4,459 Z"/>
  </g>
  <g id="bullet-char-template-61548" transform="scale(0.00048828125,-0.00048828125)">
   <path d="M 173,740 C 173,903 231,1043 346,1159 462,1274 601,1332 765,1332 928,1332 1067,1274 1183,1159 1299,1043 1357,903 1357,740 1357,577 1299,437 1183,322 1067,206 928,148 765,148 601,148 462,206 346,322 231,437 173,577 173,740 Z"/>
  </g>
 </defs>
 <defs class="TextEmbeddedBitmaps"/>
 <g class="SlideGroup">
  <g>
   <g id="container-id1">
    <g id="id1" class="Slide" clip-path="url(#presentation_clip_path)">
     <g class="Page">
      <g class="Group">
       <g class="com.sun.star.drawing.CustomShape">
        <g id="id3">
         <rect class="BoundingBox" stroke="none" fill="none" x="16574" y="-3799" width="1103" height="1469"/>
         <path fill="rgb(255,255,255)" stroke="none" d="M 17496,-3279 C 17571,-3150 17618,-3032 17649,-2900 17679,-2769 17683,-2664 17661,-2566 17639,-2467 17598,-2404 17529,-2365 17461,-2325 17386,-2321 17290,-2351 17193,-2382 17104,-2437 17006,-2529 16907,-2621 16828,-2722 16754,-2851 16679,-2980 16632,-3098 16602,-3230 16571,-3361 16567,-3466 16589,-3564 16611,-3663 16652,-3726 16721,-3765 16789,-3805 16864,-3809 16960,-3778 17057,-3748 17146,-3693 17244,-3601 17343,-3509 17422,-3408 17496,-3279 L 17496,-3279 Z"/>
         <path fill="none" stroke="rgb(0,0,0)" d="M 17496,-3279 C 17571,-3150 17618,-3032 17649,-2900 17679,-2769 17683,-2664 17661,-2566 17639,-2467 17598,-2404 17529,-2365 17461,-2325 17386,-2321 17290,-2351 17193,-2382 17104,-2437 17006,-2529 16907,-2621 16828,-2722 16754,-2851 16679,-2980 16632,-3098 16602,-3230 16571,-3361 16567,-3466 16589,-3564 16611,-3663 16652,-3726 16721,-3765 16789,-3805 16864,-3809 16960,-3778 17057,-3748 17146,-3693 17244,-3601 17343,-3509 17422,-3408 17496,-3279 Z"/>
        </g>
       </g>
       <g class="com.sun.star.drawing.CustomShape">
        <g id="id4">
         <rect class="BoundingBox" stroke="none" fill="none" x="16545" y="-3737" width="993" height="1444"/>
         <path fill="rgb(255,219,182)" stroke="none" d="M 17326,-3180 C 17400,-3052 17451,-2935 17490,-2808 17528,-2681 17541,-2582 17533,-2492 17525,-2401 17498,-2346 17445,-2315 17393,-2285 17331,-2289 17249,-2327 17166,-2365 17087,-2426 16996,-2523 16906,-2619 16831,-2722 16756,-2851 16682,-2979 16630,-3096 16592,-3223 16554,-3350 16540,-3449 16548,-3539 16557,-3630 16584,-3685 16637,-3716 16689,-3746 16751,-3743 16833,-3704 16916,-3666 16995,-3605 17085,-3508 17176,-3412 17251,-3309 17326,-3180 L 17326,-3180 Z"/>
         <path fill="none" stroke="rgb(0,0,0)" d="M 17326,-3180 C 17400,-3052 17451,-2935 17490,-2808 17528,-2681 17541,-2582 17533,-2492 17525,-2401 17498,-2346 17445,-2315 17393,-2285 17331,-2289 17249,-2327 17166,-2365 17087,-2426 16996,-2523 16906,-2619 16831,-2722 16756,-2851 16682,-2979 16630,-3096 16592,-3223 16554,-3350 16540,-3449 16548,-3539 16557,-3630 16584,-3685 16637,-3716 16689,-3746 16751,-3743 16833,-3704 16916,-3666 16995,-3605 17085,-3508 17176,-3412 17251,-3309 17326,-3180 Z"/>
        </g>
       </g>
      </g>
      <g class="Group">
       <g class="com.sun.star.drawing.CustomShape">
        <g id="id5">
         <rect class="BoundingBox" stroke="none" fill="none" x="11915" y="-3814" width="1103" height="1469"/>
         <path fill="rgb(255,255,255)" stroke="none" d="M 12095,-3294 C 12020,-3165 11973,-3047 11943,-2915 11912,-2784 11908,-2679 11930,-2581 11952,-2482 11993,-2419 12062,-2380 12130,-2340 12205,-2336 12301,-2367 12398,-2397 12487,-2452 12585,-2544 12684,-2636 12763,-2737 12837,-2866 12912,-2995 12959,-3113 12990,-3245 13020,-3376 13024,-3481 13002,-3579 12980,-3678 12939,-3741 12870,-3780 12802,-3820 12727,-3824 12631,-3794 12534,-3763 12445,-3708 12347,-3616 12248,-3524 12169,-3423 12095,-3294 L 12095,-3294 Z"/>
         <path fill="none" stroke="rgb(0,0,0)" d="M 12095,-3294 C 12020,-3165 11973,-3047 11943,-2915 11912,-2784 11908,-2679 11930,-2581 11952,-2482 11993,-2419 12062,-2380 12130,-2340 12205,-2336 12301,-2367 12398,-2397 12487,-2452 12585,-2544 12684,-2636 12763,-2737 12837,-2866 12912,-2995 12959,-3113 12990,-3245 13020,-3376 13024,-3481 13002,-3579 12980,-3678 12939,-3741 12870,-3780 12802,-3820 12727,-3824 12631,-3794 12534,-3763 12445,-3708 12347,-3616 12248,-3524 12169,-3423 12095,-3294 Z"/>
        </g>
       </g>
       <g class="com.sun.star.drawing.CustomShape">
        <g id="id6">
         <rect class="BoundingBox" stroke="none" fill="none" x="12057" y="-3754" width="993" height="1444"/>
         <path fill="rgb(255,219,182)" stroke="none" d="M 12268,-3197 C 12194,-3068 12142,-2952 12104,-2825 12066,-2698 12052,-2599 12061,-2508 12069,-2418 12096,-2363 12149,-2332 12201,-2302 12263,-2306 12346,-2344 12428,-2382 12507,-2443 12598,-2540 12688,-2636 12764,-2739 12838,-2868 12912,-2997 12964,-3113 13002,-3240 13040,-3367 13054,-3466 13046,-3557 13037,-3647 13010,-3702 12957,-3733 12905,-3763 12843,-3759 12761,-3721 12678,-3683 12599,-3622 12509,-3525 12418,-3429 12343,-3326 12268,-3197 L 12268,-3197 Z"/>
         <path fill="none" stroke="rgb(0,0,0)" d="M 12268,-3197 C 12194,-3068 12142,-2952 12104,-2825 12066,-2698 12052,-2599 12061,-2508 12069,-2418 12096,-2363 12149,-2332 12201,-2302 12263,-2306 12346,-2344 12428,-2382 12507,-2443 12598,-2540 12688,-2636 12764,-2739 12838,-2868 12912,-2997 12964,-3113 13002,-3240 13040,-3367 13054,-3466 13046,-3557 13037,-3647 13010,-3702 12957,-3733 12905,-3763 12843,-3759 12761,-3721 12678,-3683 12599,-3622 12509,-3525 12418,-3429 12343,-3326 12268,-3197 Z"/>
        </g>
       </g>
      </g>
      <g class="com.sun.star.drawing.ClosedBezierShape">
       <g id="id7">
        <rect class="BoundingBox" stroke="none" fill="none" x="15631" y="-4790" width="886" height="955"/>
        <path fill="rgb(255,245,206)" stroke="none" d="M 16409,-4789 C 16028,-4599 15893,-4344 15632,-4071 15923,-3993 16214,-3915 16504,-3837 16474,-4188 16594,-4308 16409,-4789 Z"/>
        <path fill="none" stroke="rgb(0,0,0)" d="M 16409,-4789 C 16028,-4599 15893,-4344 15632,-4071 15923,-3993 16214,-3915 16504,-3837 16474,-4188 16594,-4308 16409,-4789 Z"/>
       </g>
      </g>
      <g class="com.sun.star.drawing.ClosedBezierShape">
       <g id="id8">
        <rect class="BoundingBox" stroke="none" fill="none" x="12958" y="-4789" width="886" height="955"/>
        <path fill="rgb(255,245,206)" stroke="none" d="M 13065,-4788 C 13446,-4598 13582,-4343 13842,-4070 13551,-3992 13260,-3914 12970,-3836 13000,-4187 12880,-4307 13065,-4788 Z"/>
        <path fill="none" stroke="rgb(0,0,0)" d="M 13065,-4788 C 13446,-4598 13582,-4343 13842,-4070 13551,-3992 13260,-3914 12970,-3836 13000,-4187 12880,-4307 13065,-4788 Z"/>
       </g>
      </g>
      <g class="com.sun.star.drawing.CustomShape">
       <g id="id9">
        <rect class="BoundingBox" stroke="none" fill="none" x="12114" y="-4694" width="5327" height="5707"/>
        <path fill="rgb(255,255,255)" stroke="none" d="M 14777,-4694 C 15267,-4694 15684,-4574 16108,-4311 16533,-4049 16838,-3722 17083,-3267 17328,-2812 17440,-2366 17440,-1841 17440,-1316 17328,-870 17083,-415 16838,40 16533,367 16108,629 15684,892 15267,1012 14777,1012 14287,1012 13870,892 13446,629 13021,367 12716,40 12471,-415 12226,-870 12115,-1316 12115,-1841 12115,-2366 12226,-2812 12471,-3267 12716,-3722 13021,-4049 13446,-4311 13870,-4574 14287,-4694 14777,-4694 L 14777,-4694 Z"/>
        <path fill="none" stroke="rgb(0,0,0)" d="M 14777,-4694 C 15267,-4694 15684,-4574 16108,-4311 16533,-4049 16838,-3722 17083,-3267 17328,-2812 17440,-2366 17440,-1841 17440,-1316 17328,-870 17083,-415 16838,40 16533,367 16108,629 15684,892 15267,1012 14777,1012 14287,1012 13870,892 13446,629 13021,367 12716,40 12471,-415 12226,-870 12115,-1316 12115,-1841 12115,-2366 12226,-2812 12471,-3267 12716,-3722 13021,-4049 13446,-4311 13870,-4574 14287,-4694 14777,-4694 L 14777,-4694 Z"/>
       </g>
      </g>
      <g class="com.sun.star.drawing.ClosedBezierShape">
       <g id="id10">
        <rect class="BoundingBox" stroke="none" fill="none" x="12404" y="-490" width="4746" height="1692"/>
        <path fill="rgb(255,219,182)" stroke="none" d="M 17058,-421 C 17260,-268 17058,32 17058,210 17058,388 16872,566 16670,719 16469,872 16219,983 15870,1071 15521,1159 15180,1200 14777,1200 14373,1200 14032,1159 13683,1071 13334,983 13084,872 12883,719 12681,566 12495,388 12495,210 12494,32 12293,-268 12495,-421 12696,-574 14373,-421 14777,-421 14777,-421 16857,-574 17058,-421 Z"/>
        <path fill="none" stroke="rgb(0,0,0)" d="M 17058,-421 C 17260,-268 17058,32 17058,210 17058,388 16872,566 16670,719 16469,872 16219,983 15870,1071 15521,1159 15180,1200 14777,1200 14373,1200 14032,1159 13683,1071 13334,983 13084,872 12883,719 12681,566 12495,388 12495,210 12494,32 12293,-268 12495,-421 12696,-574 14373,-421 14777,-421 14777,-421 16857,-574 17058,-421 Z"/>
       </g>
      </g>
      <g class="com.sun.star.drawing.CustomShape">
       <g id="id11">
        <rect class="BoundingBox" stroke="none" fill="none" x="13538" y="350" width="289" height="383"/>
        <path fill="rgb(0,0,0)" stroke="none" d="M 13682,351 C 13708,351 13731,358 13754,376 13776,394 13793,415 13806,446 13819,476 13825,506 13825,541 13825,576 13819,606 13806,636 13793,667 13776,688 13754,706 13731,724 13708,732 13682,732 13656,732 13633,724 13611,706 13588,688 13571,667 13558,636 13545,606 13539,576 13539,541 13539,506 13545,476 13558,446 13571,415 13588,394 13611,376 13633,358 13656,351 13682,351 L 13682,351 Z"/>
        <path fill="none" stroke="rgb(0,0,0)" d="M 13682,351 C 13708,351 13731,358 13754,376 13776,394 13793,415 13806,446 13819,476 13825,506 13825,541 13825,576 13819,606 13806,636 13793,667 13776,688 13754,706 13731,724 13708,732 13682,732 13656,732 13633,724 13611,706 13588,688 13571,667 13558,636 13545,606 13539,576 13539,541 13539,506 13545,476 13558,446 13571,415 13588,394 13611,376 13633,358 13656,351 13682,351 Z"/>
       </g>
      </g>
      <g class="com.sun.star.drawing.CustomShape">
       <g id="id12">
        <rect class="BoundingBox" stroke="none" fill="none" x="15726" y="350" width="289" height="383"/>
        <path fill="rgb(0,0,0)" stroke="none" d="M 15870,351 C 15896,351 15919,358 15942,376 15965,394 15981,415 15994,446 16007,476 16014,506 16014,541 16014,576 16007,606 15994,636 15981,667 15965,688 15942,706 15919,724 15896,732 15870,732 15844,732 15821,724 15798,706 15775,688 15759,667 15746,636 15733,606 15727,576 15727,541 15727,506 15733,476 15746,446 15759,415 15775,394 15798,376 15821,358 15844,351 15870,351 L 15870,351 Z"/>
        <path fill="none" stroke="rgb(0,0,0)" d="M 15870,351 C 15896,351 15919,358 15942,376 15965,394 15981,415 15994,446 16007,476 16014,506 16014,541 16014,576 16007,606 15994,636 15981,667 15965,688 15942,706 15919,724 15896,732 15870,732 15844,732 15821,724 15798,706 15775,688 15759,667 15746,636 15733,606 15727,576 15727,541 15727,506 15733,476 15746,446 15759,415 15775,394 15798,376 15821,358 15844,351 15870,351 Z"/>
       </g>
      </g>
      <g class="com.sun.star.drawing.ClosedBezierShape">
       <g id="id13">
        <rect class="BoundingBox" stroke="none" fill="none" x="13480" y="-2590" width="574" height="303"/>
        <path fill="rgb(0,0,0)" stroke="none" d="M 13768,-2289 C 13821,-2289 13986,-2428 14013,-2445 14040,-2461 14052,-2478 14052,-2497 14052,-2516 14040,-2533 14013,-2549 13986,-2566 13955,-2578 13909,-2588 13863,-2598 13821,-2498 13768,-2498 13715,-2498 13669,-2598 13623,-2588 13577,-2578 13546,-2566 13519,-2549 13492,-2533 13481,-2516 13481,-2497 13481,-2478 13492,-2461 13519,-2445 13546,-2428 13715,-2289 13768,-2289 Z"/>
        <path fill="none" stroke="rgb(0,0,0)" d="M 13768,-2289 C 13821,-2289 13986,-2428 14013,-2445 14040,-2461 14052,-2478 14052,-2497 14052,-2516 14040,-2533 14013,-2549 13986,-2566 13955,-2578 13909,-2588 13863,-2598 13821,-2498 13768,-2498 13715,-2498 13669,-2598 13623,-2588 13577,-2578 13546,-2566 13519,-2549 13492,-2533 13481,-2516 13481,-2497 13481,-2478 13492,-2461 13519,-2445 13546,-2428 13715,-2289 13768,-2289 Z"/>
       </g>
      </g>
      <g class="com.sun.star.drawing.LineShape">
       <g id="id14">
        <rect class="BoundingBox" stroke="none" fill="none" x="13102" y="-3139" width="1001" height="401"/>
        <path fill="none" stroke="rgb(0,0,0)" stroke-width="100" stroke-linejoin="round" d="M 14052,-3089 L 13152,-2789"/>
       </g>
      </g>
      <g class="com.sun.star.drawing.ClosedBezierShape">
       <g id="id15">
        <rect class="BoundingBox" stroke="none" fill="none" x="15251" y="-2590" width="574" height="303"/>
        <path fill="rgb(0,0,0)" stroke="none" d="M 15539,-2289 C 15592,-2289 15757,-2428 15784,-2445 15811,-2461 15823,-2478 15823,-2497 15823,-2516 15811,-2533 15784,-2549 15757,-2566 15726,-2578 15680,-2588 15634,-2598 15592,-2498 15539,-2498 15486,-2498 15440,-2598 15394,-2588 15348,-2578 15317,-2566 15290,-2549 15263,-2533 15252,-2516 15252,-2497 15252,-2478 15263,-2461 15290,-2445 15317,-2428 15486,-2289 15539,-2289 Z"/>
        <path fill="none" stroke="rgb(0,0,0)" d="M 15539,-2289 C 15592,-2289 15757,-2428 15784,-2445 15811,-2461 15823,-2478 15823,-2497 15823,-2516 15811,-2533 15784,-2549 15757,-2566 15726,-2578 15680,-2588 15634,-2598 15592,-2498 15539,-2498 15486,-2498 15440,-2598 15394,-2588 15348,-2578 15317,-2566 15290,-2549 15263,-2533 15252,-2516 15252,-2497 15252,-2478 15263,-2461 15290,-2445 15317,-2428 15486,-2289 15539,-2289 Z"/>
       </g>
      </g>
      <g class="com.sun.star.drawing.LineShape">
       <g id="id16">
        <rect class="BoundingBox" stroke="none" fill="none" x="15202" y="-3139" width="1001" height="401"/>
        <path fill="none" stroke="rgb(0,0,0)" stroke-width="100" stroke-linejoin="round" d="M 15252,-3089 L 16152,-2789"/>
       </g>
      </g>
     </g>
    </g>
   </g>
  </g>
 </g>
</svg>